<svg xmlns="http://www.w3.org/2000/svg" xmlns:xlink="http://www.w3.org/1999/xlink" xmlns:lucid="lucid" width="1478.28" height="1033"><g transform="translate(-139 4.000000000050761)" lucid:page-tab-id="0_0"><path d="M220 520h300v197H220z" stroke="#333" stroke-width="2" fill="#fff"/><path d="M220 557.6h300m-300 79.7h300" stroke="#333" stroke-width="2" fill="none"/><use xlink:href="#a" transform="matrix(1,0,0,1,228,528) translate(75.07499999999999 14.6)"/><use xlink:href="#b" transform="matrix(1,0,0,1,228,528) translate(160.975 14.6)"/><use xlink:href="#c" transform="matrix(1,0,0,1,232,565.6) translate(0 24.799999999999997)"/><use xlink:href="#d" transform="matrix(1,0,0,1,232,565.6) translate(10.95 24.799999999999997)"/><use xlink:href="#e" transform="matrix(1,0,0,1,232,565.6) translate(65.9 24.799999999999997)"/><use xlink:href="#c" transform="matrix(1,0,0,1,232,565.6) translate(0 46.4)"/><use xlink:href="#f" transform="matrix(1,0,0,1,232,565.6) translate(10.95 46.4)"/><use xlink:href="#g" transform="matrix(1,0,0,1,232,565.6) translate(59.849999999999994 46.4)"/><use xlink:href="#h" transform="matrix(1,0,0,1,232,645.3000000000001) translate(0 24.799999999999997)"/><use xlink:href="#i" transform="matrix(1,0,0,1,232,645.3000000000001) translate(15.5 24.799999999999997)"/><use xlink:href="#e" transform="matrix(1,0,0,1,232,645.3000000000001) translate(110.30000000000001 24.799999999999997)"/><use xlink:href="#h" transform="matrix(1,0,0,1,232,645.3000000000001) translate(0 46.4)"/><use xlink:href="#j" transform="matrix(1,0,0,1,232,645.3000000000001) translate(15.5 46.4)"/><use xlink:href="#g" transform="matrix(1,0,0,1,232,645.3000000000001) translate(103.30000000000001 46.4)"/><path d="M266.72 25a8 8 0 0 1 8-8h836.75a8 8 0 0 1 8 8v25.16a8 8 0 0 1-8 8H274.72a8 8 0 0 1-8-8z" stroke="#000" stroke-opacity="0" stroke-width="2" fill="#fff" fill-opacity="0"/><use xlink:href="#k" transform="matrix(1,0,0,1,270.7192698782485,20.99999999994924) translate(329.84395061728395 25.782777777777778)"/><use xlink:href="#l" transform="matrix(1,0,0,1,270.7192698782485,20.99999999994924) translate(373.4748148148148 25.782777777777778)"/><use xlink:href="#m" transform="matrix(1,0,0,1,270.7192698782485,20.99999999994924) translate(424.46246913580245 25.782777777777778)"/><use xlink:href="#n" transform="matrix(1,0,0,1,270.7192698782485,20.99999999994924) translate(440.4143209876543 25.782777777777778)"/><use xlink:href="#m" transform="matrix(1,0,0,1,270.7192698782485,20.99999999994924) translate(491.2562962962963 25.782777777777778)"/><use xlink:href="#o" transform="matrix(1,0,0,1,270.7192698782485,20.99999999994924) translate(507.2081481481481 25.782777777777778)"/><path d="M543.2 56.8h309.36M543.23 56.8h-1.03M852.54 56.8h1.02" stroke="#a9afb8" stroke-width="2" fill="none"/><path d="M266.72 66.16a8 8 0 0 1 8-8h837.7a8 8 0 0 1 8 8V69a8 8 0 0 1-8 8h-837.7a8 8 0 0 1-8-8z" stroke="#000" stroke-opacity="0" stroke-width="2" fill="#fff" fill-opacity="0"/><use xlink:href="#p" transform="matrix(1,0,0,1,270.71926987824895,62.15522395684805) translate(298.7133950617284 14.917037037037037)"/><use xlink:href="#q" transform="matrix(1,0,0,1,270.71926987824895,62.15522395684805) translate(367.3767695473251 14.917037037037037)"/><use xlink:href="#r" transform="matrix(1,0,0,1,270.71926987824895,62.15522395684805) translate(403.0256378600823 14.917037037037037)"/><use xlink:href="#s" transform="matrix(1,0,0,1,270.71926987824895,62.15522395684805) translate(415.47512345679013 14.917037037037037)"/><use xlink:href="#t" transform="matrix(1,0,0,1,270.71926987824895,62.15522395684805) translate(494.4210082304527 14.917037037037037)"/><use xlink:href="#u" transform="matrix(1,0,0,1,270.71926987824895,62.15522395684805) translate(519.9148353909466 14.917037037037037)"/><path d="M680 523h300v197H680z" stroke="#333" stroke-width="2" fill="#fff"/><path d="M680 560.6h300m-300 79.7h300" stroke="#333" stroke-width="2" fill="none"/><use xlink:href="#v" transform="matrix(1,0,0,1,688,530.9999999998179) translate(68.67499999999998 14.6)"/><use xlink:href="#b" transform="matrix(1,0,0,1,688,530.9999999998179) translate(167.375 14.6)"/><use xlink:href="#c" transform="matrix(1,0,0,1,692,568.5999999998179) translate(0 24.799999999999997)"/><use xlink:href="#d" transform="matrix(1,0,0,1,692,568.5999999998179) translate(10.95 24.799999999999997)"/><use xlink:href="#e" transform="matrix(1,0,0,1,692,568.5999999998179) translate(65.9 24.799999999999997)"/><use xlink:href="#c" transform="matrix(1,0,0,1,692,568.5999999998179) translate(0 46.4)"/><use xlink:href="#f" transform="matrix(1,0,0,1,692,568.5999999998179) translate(10.95 46.4)"/><use xlink:href="#g" transform="matrix(1,0,0,1,692,568.5999999998179) translate(59.849999999999994 46.4)"/><use xlink:href="#h" transform="matrix(1,0,0,1,692,648.2999999998179) translate(0 24.799999999999997)"/><use xlink:href="#i" transform="matrix(1,0,0,1,692,648.2999999998179) translate(15.5 24.799999999999997)"/><use xlink:href="#e" transform="matrix(1,0,0,1,692,648.2999999998179) translate(110.30000000000001 24.799999999999997)"/><use xlink:href="#h" transform="matrix(1,0,0,1,692,648.2999999998179) translate(0 46.4)"/><use xlink:href="#j" transform="matrix(1,0,0,1,692,648.2999999998179) translate(15.5 46.4)"/><use xlink:href="#g" transform="matrix(1,0,0,1,692,648.2999999998179) translate(103.30000000000001 46.4)"/><path d="M160 822h300v175H160z" stroke="#333" stroke-width="2" fill="#fff"/><path d="M160 859.6h300m-300 79.7h300" stroke="#333" stroke-width="2" fill="none"/><use xlink:href="#w" transform="matrix(1,0,0,1,168,830) translate(3.2500000000000284 14.6)"/><use xlink:href="#b" transform="matrix(1,0,0,1,168,830) translate(232.79999999999998 14.6)"/><use xlink:href="#c" transform="matrix(1,0,0,1,172,867.6) translate(0 24.799999999999997)"/><use xlink:href="#x" transform="matrix(1,0,0,1,172,867.6) translate(10.95 24.799999999999997)"/><use xlink:href="#y" transform="matrix(1,0,0,1,172,867.6) translate(154.6 24.799999999999997)"/><use xlink:href="#c" transform="matrix(1,0,0,1,172,867.6) translate(0 46.4)"/><use xlink:href="#z" transform="matrix(1,0,0,1,172,867.6) translate(10.95 46.4)"/><use xlink:href="#A" transform="matrix(1,0,0,1,172,867.6) translate(94.9 46.4)"/><use xlink:href="#h" transform="matrix(1,0,0,1,172,947.3000000000001) translate(0 25.1)"/><use xlink:href="#B" transform="matrix(1,0,0,1,172,947.3000000000001) translate(15.5 25.1)"/><use xlink:href="#A" transform="matrix(1,0,0,1,172,947.3000000000001) translate(139.3 25.1)"/><path d="M700 811h300v197H700z" stroke="#333" stroke-width="2" fill="#fff"/><path d="M700 848.6h300m-300 79.7h300" stroke="#333" stroke-width="2" fill="none"/><use xlink:href="#C" transform="matrix(1,0,0,1,708,819) translate(24.725000000000023 14.6)"/><use xlink:href="#b" transform="matrix(1,0,0,1,708,819) translate(211.325 14.6)"/><use xlink:href="#c" transform="matrix(1,0,0,1,712,856.6) translate(0 24.799999999999997)"/><use xlink:href="#x" transform="matrix(1,0,0,1,712,856.6) translate(10.95 24.799999999999997)"/><use xlink:href="#y" transform="matrix(1,0,0,1,712,856.6) translate(154.6 24.799999999999997)"/><use xlink:href="#c" transform="matrix(1,0,0,1,712,856.6) translate(0 46.4)"/><use xlink:href="#z" transform="matrix(1,0,0,1,712,856.6) translate(10.95 46.4)"/><use xlink:href="#D" transform="matrix(1,0,0,1,712,856.6) translate(94.9 46.4)"/><g><use xlink:href="#h" transform="matrix(1,0,0,1,712,936.3000000000001) translate(0 24.799999999999997)"/><use xlink:href="#E" transform="matrix(1,0,0,1,712,936.3000000000001) translate(15.5 24.799999999999997)"/><use xlink:href="#F" transform="matrix(1,0,0,1,712,936.3000000000001) translate(144.95 24.799999999999997)"/><use xlink:href="#h" transform="matrix(1,0,0,1,712,936.3000000000001) translate(0 46.4)"/><use xlink:href="#G" transform="matrix(1,0,0,1,712,936.3000000000001) translate(15.5 46.4)"/><use xlink:href="#A" transform="matrix(1,0,0,1,712,936.3000000000001) translate(99.30000000000001 46.4)"/></g><path d="M545.5 910H477.4v-1h68.13zm153 0h-84v-1h84z" stroke="#3a414a" stroke-width=".05" fill="#3a414a"/><path d="M699 910h-.5v-1h.5z" fill="#3a414a"/><path d="M699.02 910.02h-.56V909h.56zm-.5-1v.96h.46V909z" stroke="#3a414a" stroke-width=".05" fill="#3a414a"/><path d="M476.88 914.13l-14.26-4.63 14.26-4.63z" fill="#3a414a"/><path d="M477.38 914.82L461 909.5l16.38-5.32zm-13.14-5.32l12.14 3.95v-7.9z" stroke="#3a414a" stroke-width=".05" fill="#3a414a"/><g><use xlink:href="#H" transform="matrix(1,0,0,1,545.5061728395061,898.8333333333334) translate(0 14.222222222222223)"/></g><path d="M477.38 909.5h62.12" stroke="#3a414a" fill="none"/><path d="M462.62 909.5l14.26-4.63v9.26z" stroke="#3a414a" fill="#fff"/><path d="M539.5 909.5h.5" stroke="#3a414a" fill="none"/><path d="M1040 625h556.28v197H1040z" stroke="#333" stroke-width="2" fill="#fff"/><path d="M1040 662.6h556.28M1040 742.3h556.28" stroke="#333" stroke-width="2" fill="none"/><g><use xlink:href="#I" transform="matrix(1,0,0,1,1048,633) translate(198.625 14.6)"/><use xlink:href="#b" transform="matrix(1,0,0,1,1048,633) translate(294.425 14.6)"/></g><g><use xlink:href="#h" transform="matrix(1,0,0,1,1052,670.6) translate(0 24.799999999999997)"/><use xlink:href="#J" transform="matrix(1,0,0,1,1052,670.6) translate(15.5 24.799999999999997)"/><use xlink:href="#e" transform="matrix(1,0,0,1,1052,670.6) translate(53.4 24.799999999999997)"/><use xlink:href="#h" transform="matrix(1,0,0,1,1052,670.6) translate(0 46.4)"/><use xlink:href="#K" transform="matrix(1,0,0,1,1052,670.6) translate(15.5 46.4)"/><use xlink:href="#A" transform="matrix(1,0,0,1,1052,670.6) translate(78.4 46.4)"/></g><g><use xlink:href="#h" transform="matrix(1,0,0,1,1052,750.3000000000001) translate(0 24.799999999999997)"/><use xlink:href="#L" transform="matrix(1,0,0,1,1052,750.3000000000001) translate(15.5 24.799999999999997)"/><use xlink:href="#M" transform="matrix(1,0,0,1,1052,750.3000000000001) translate(213.09999999999997 24.799999999999997)"/><use xlink:href="#N" transform="matrix(1,0,0,1,1052,750.3000000000001) translate(299.84999999999997 24.799999999999997)"/><use xlink:href="#h" transform="matrix(1,0,0,1,1052,750.3000000000001) translate(0 46.4)"/><use xlink:href="#O" transform="matrix(1,0,0,1,1052,750.3000000000001) translate(15.5 46.4)"/><use xlink:href="#M" transform="matrix(1,0,0,1,1052,750.3000000000001) translate(222.99999999999994 46.4)"/><use xlink:href="#P" transform="matrix(1,0,0,1,1052,750.3000000000001) translate(309.74999999999994 46.4)"/></g><path d="M419 120h556.28v360H419z" stroke="#333" stroke-width="2" fill="#fff"/><path d="M419 157.6h556.28M419 351.4h556.28" stroke="#333" stroke-width="2" fill="none"/><g><use xlink:href="#Q" transform="matrix(1,0,0,1,427,128) translate(186.625 14.6)"/><use xlink:href="#b" transform="matrix(1,0,0,1,427,128) translate(306.425 14.6)"/></g><g><use xlink:href="#c" transform="matrix(1,0,0,1,431,165.6) translate(0 17.000000000000007)"/><use xlink:href="#R" transform="matrix(1,0,0,1,431,165.6) translate(10.95 17.000000000000007)"/><use xlink:href="#N" transform="matrix(1,0,0,1,431,165.6) translate(104.9 17.000000000000007)"/><use xlink:href="#c" transform="matrix(1,0,0,1,431,165.6) translate(0 38.60000000000001)"/><use xlink:href="#S" transform="matrix(1,0,0,1,431,165.6) translate(10.95 38.60000000000001)"/><use xlink:href="#T" transform="matrix(1,0,0,1,431,165.6) translate(65.9 38.60000000000001)"/><use xlink:href="#c" transform="matrix(1,0,0,1,431,165.6) translate(0 60.20000000000001)"/><use xlink:href="#U" transform="matrix(1,0,0,1,431,165.6) translate(10.95 60.20000000000001)"/><use xlink:href="#T" transform="matrix(1,0,0,1,431,165.6) translate(52.8 60.20000000000001)"/><use xlink:href="#c" transform="matrix(1,0,0,1,431,165.6) translate(0 81.80000000000003)"/><use xlink:href="#V" transform="matrix(1,0,0,1,431,165.6) translate(10.95 81.80000000000003)"/><use xlink:href="#W" transform="matrix(1,0,0,1,431,165.6) translate(84.9 81.80000000000003)"/><use xlink:href="#c" transform="matrix(1,0,0,1,431,165.6) translate(0 103.40000000000002)"/><use xlink:href="#X" transform="matrix(1,0,0,1,431,165.6) translate(10.95 103.40000000000002)"/><use xlink:href="#Y" transform="matrix(1,0,0,1,431,165.6) translate(54.900000000000006 103.40000000000002)"/><use xlink:href="#Z" transform="matrix(1,0,0,1,431,165.6) translate(0 125.00000000000001)"/><use xlink:href="#aa" transform="matrix(1,0,0,1,431,165.6) translate(10.95 125.00000000000001)"/><use xlink:href="#ab" transform="matrix(1,0,0,1,431,165.6) translate(164.85 125.00000000000001)"/><use xlink:href="#c" transform="matrix(1,0,0,1,431,165.6) translate(0 146.6)"/><use xlink:href="#ac" transform="matrix(1,0,0,1,431,165.6) translate(10.95 146.6)"/><use xlink:href="#ad" transform="matrix(1,0,0,1,431,165.6) translate(135.85 146.6)"/><use xlink:href="#c" transform="matrix(1,0,0,1,431,165.6) translate(0 168.20000000000002)"/><use xlink:href="#ae" transform="matrix(1,0,0,1,431,165.6) translate(10.95 168.20000000000002)"/><use xlink:href="#af" transform="matrix(1,0,0,1,431,165.6) translate(119.75000000000001 168.20000000000002)"/></g><g><use xlink:href="#h" transform="matrix(1,0,0,1,431,359.3999999999089) translate(0 16.89999999999999)"/><use xlink:href="#ag" transform="matrix(1,0,0,1,431,359.3999999999089) translate(15.5 16.89999999999999)"/><use xlink:href="#ah" transform="matrix(1,0,0,1,431,359.3999999999089) translate(72.35000000000001 16.89999999999999)"/><use xlink:href="#c" transform="matrix(1,0,0,1,431,359.3999999999089) translate(0 38.49999999999999)"/><use xlink:href="#ai" transform="matrix(1,0,0,1,431,359.3999999999089) translate(10.95 38.49999999999999)"/><use xlink:href="#aj" transform="matrix(1,0,0,1,431,359.3999999999089) translate(187.59999999999997 38.49999999999999)"/><use xlink:href="#e" transform="matrix(1,0,0,1,431,359.3999999999089) translate(276.5 38.49999999999999)"/><use xlink:href="#c" transform="matrix(1,0,0,1,431,359.3999999999089) translate(0 60.099999999999994)"/><use xlink:href="#ak" transform="matrix(1,0,0,1,431,359.3999999999089) translate(10.95 60.099999999999994)"/><use xlink:href="#al" transform="matrix(1,0,0,1,431,359.3999999999089) translate(360.44999999999993 60.099999999999994)"/><use xlink:href="#am" transform="matrix(1,0,0,1,431,359.3999999999089) translate(462.3499999999999 60.099999999999994)"/><use xlink:href="#an" transform="matrix(1,0,0,1,431,359.3999999999089) translate(0 81.70000000000002)"/><use xlink:href="#ao" transform="matrix(1,0,0,1,431,359.3999999999089) translate(131.85000000000002 81.70000000000002)"/><use xlink:href="#ap" transform="matrix(1,0,0,1,431,359.3999999999089) translate(346.55 81.70000000000002)"/><use xlink:href="#ah" transform="matrix(1,0,0,1,431,359.3999999999089) translate(442.40000000000003 81.70000000000002)"/><use xlink:href="#aq" transform="matrix(1,0,0,1,431,359.3999999999089) translate(0 103.30000000000001)"/></g><path d="M1080 220h300v197h-300z" stroke="#333" stroke-width="2" fill="#fff"/><path d="M1080 257.6h300m-300 79.7h300" stroke="#333" stroke-width="2" fill="none"/><g><use xlink:href="#ar" transform="matrix(1,0,0,1,1088,228) translate(28.75 14.6)"/><use xlink:href="#b" transform="matrix(1,0,0,1,1088,228) translate(207.29999999999998 14.6)"/></g><g><use xlink:href="#c" transform="matrix(1,0,0,1,1092,265.6) translate(0 24.799999999999997)"/><use xlink:href="#as" transform="matrix(1,0,0,1,1092,265.6) translate(10.95 24.799999999999997)"/><use xlink:href="#at" transform="matrix(1,0,0,1,1092,265.6) translate(103.85000000000001 24.799999999999997)"/><use xlink:href="#c" transform="matrix(1,0,0,1,1092,265.6) translate(0 46.4)"/><use xlink:href="#au" transform="matrix(1,0,0,1,1092,265.6) translate(10.95 46.4)"/><use xlink:href="#av" transform="matrix(1,0,0,1,1092,265.6) translate(58.900000000000006 46.4)"/></g><g><use xlink:href="#h" transform="matrix(1,0,0,1,1092,345.3) translate(0 24.799999999999997)"/><use xlink:href="#aw" transform="matrix(1,0,0,1,1092,345.3) translate(15.5 24.799999999999997)"/><use xlink:href="#ax" transform="matrix(1,0,0,1,1092,345.3) translate(0 46.4)"/><use xlink:href="#ay" transform="matrix(1,0,0,1,1092,345.3) translate(92.9 46.4)"/><use xlink:href="#az" transform="matrix(1,0,0,1,1092,345.3) translate(116.85000000000001 46.4)"/></g><path d="M976.78 300h101.31" stroke="#3a414a" fill="none"/><path d="M976.8 300.5h-.52v-1h.5z" stroke="#3a414a" stroke-width=".05" fill="#3a414a"/><path d="M1060.8 310.18l17.22-10.18-17.22-10.18M417.5 300H384a6 6 0 0 0-6 6v188a6 6 0 0 0 6 6h171a6 6 0 0 1 6 6v106.5a6 6 0 0 1-6 6h-33.1" stroke="#3a414a" fill="none"/><path d="M418 300.5h-.5v-1h.5z" stroke="#3a414a" stroke-width=".05" fill="#3a414a"/><path d="M539.2 608.32l-17.22 10.18 17.22 10.18M697.14 481.5V496a6 6 0 0 1-6 6H645a6 6 0 0 0-6 6v107.5a6 6 0 0 0 6 6h33.1" stroke="#3a414a" fill="none"/><path d="M697.64 481.5h-1v-.5h1z" stroke="#3a414a" stroke-width=".05" fill="#3a414a"/><path d="M660.8 631.68l17.22-10.18-17.22-10.18M1038.5 781.38H375.7a6 6 0 0 1-6-6V718.9" stroke="#3a414a" fill="none"/><path d="M1039 781.88h-.5v-1h.5z" stroke="#3a414a" stroke-width=".05" fill="#3a414a"/><path d="M379.9 736.2l-10.2-17.22-10.18 17.22M1038.5 780H836a6 6 0 0 1-6-6v-52.1" stroke="#3a414a" fill="none"/><path d="M1039 780.5h-.5v-1h.5z" stroke="#3a414a" stroke-width=".05" fill="#3a414a"/><path d="M840.18 739.2L830 721.98l-10.18 17.22M1381.5 320h33.5a6 6 0 0 1 6 6v269.88a6 6 0 0 1-6 6H981.9" stroke="#3a414a" fill="none"/><path d="M1381.5 320.5h-.5v-1h.5z" stroke="#3a414a" stroke-width=".05" fill="#3a414a"/><path d="M999.2 591.7l-17.22 10.18 17.22 10.18" stroke="#3a414a" fill="none"/><defs><path fill="#333" d="M182-130c37 4 62 22 62 59C244 23 116-4 24 0v-248c84 5 203-23 205 63 0 31-19 50-47 55zM76-148c40-3 101 13 101-30 0-44-60-28-101-31v61zm0 110c48-3 116 14 116-37 0-48-69-32-116-35v72" id="aA"/><path fill="#333" d="M185-48c-13 30-37 53-82 52C43 2 14-33 14-96s30-98 90-98c62 0 83 45 84 108H66c0 31 8 55 39 56 18 0 30-7 34-22zm-45-69c5-46-57-63-70-21-2 6-4 13-4 21h74" id="aB"/><path fill="#333" d="M128 0H69L1-190h53L99-40l48-150h52" id="aC"/><path fill="#333" d="M135-150c-39-12-60 13-60 57V0H25l-1-190h47c2 13-1 29 3 40 6-28 27-53 61-41v41" id="aD"/><path fill="#333" d="M133-34C117-15 103 5 69 4 32 3 11-16 11-54c-1-60 55-63 116-61 1-26-3-47-28-47-18 1-26 9-28 27l-52-2c7-38 36-58 82-57s74 22 75 68l1 82c-1 14 12 18 25 15v27c-30 8-71 5-69-32zm-48 3c29 0 43-24 42-57-32 0-66-3-65 30 0 17 8 27 23 27" id="aE"/><path fill="#333" d="M195-6C206 82 75 100 31 46c-4-6-6-13-8-21l49-6c3 16 16 24 34 25 40 0 42-37 40-79-11 22-30 35-61 35-53 0-70-43-70-97 0-56 18-96 73-97 30 0 46 14 59 34l2-30h47zm-90-29c32 0 41-27 41-63 0-35-9-62-40-62-32 0-39 29-40 63 0 36 9 62 39 62" id="aF"/><g id="a"><use transform="matrix(0.05,0,0,0.05,0,0)" xlink:href="#aA"/><use transform="matrix(0.05,0,0,0.05,12.950000000000001,0)" xlink:href="#aB"/><use transform="matrix(0.05,0,0,0.05,22.950000000000003,0)" xlink:href="#aC"/><use transform="matrix(0.05,0,0,0.05,32.95,0)" xlink:href="#aB"/><use transform="matrix(0.05,0,0,0.05,42.95,0)" xlink:href="#aD"/><use transform="matrix(0.05,0,0,0.05,49.95,0)" xlink:href="#aE"/><use transform="matrix(0.05,0,0,0.05,59.95,0)" xlink:href="#aF"/><use transform="matrix(0.05,0,0,0.05,70.9,0)" xlink:href="#aB"/></g><path fill="#333" d="M67-125c0 53 21 87 73 88 37 1 54-22 65-47l45 17C233-25 199 4 140 4 58 4 20-42 15-125 8-235 124-281 211-232c18 10 29 29 36 50l-46 12c-8-25-30-41-62-41-52 0-71 34-72 86" id="aG"/><path fill="#333" d="M25 0v-261h50V0H25" id="aH"/><path fill="#333" d="M137-138c1-29-70-34-71-4 15 46 118 7 119 86 1 83-164 76-172 9l43-7c4 19 20 25 44 25 33 8 57-30 24-41C81-84 22-81 20-136c-2-80 154-74 161-7" id="aI"/><g id="b"><use transform="matrix(0.05,0,0,0.05,0,0)" xlink:href="#aG"/><use transform="matrix(0.05,0,0,0.05,12.950000000000001,0)" xlink:href="#aH"/><use transform="matrix(0.05,0,0,0.05,17.950000000000003,0)" xlink:href="#aE"/><use transform="matrix(0.05,0,0,0.05,27.950000000000003,0)" xlink:href="#aI"/><use transform="matrix(0.05,0,0,0.05,37.95,0)" xlink:href="#aI"/></g><path fill="#333" d="M16-82v-28h88v28H16" id="aJ"/><use transform="matrix(0.05,0,0,0.05,0,0)" xlink:href="#aJ" id="c"/><path fill="#333" d="M117-194c89-4 53 116 60 194h-32v-121c0-31-8-49-39-48C34-167 62-67 57 0H25l-1-190h30c1 10-1 24 2 32 11-22 29-35 61-36" id="aK"/><path fill="#333" d="M141-36C126-15 110 5 73 4 37 3 15-17 15-53c-1-64 63-63 125-63 3-35-9-54-41-54-24 1-41 7-42 31l-33-3c5-37 33-52 76-52 45 0 72 20 72 64v82c-1 20 7 32 28 27v20c-31 9-61-2-59-35zM48-53c0 20 12 33 32 33 41-3 63-29 60-74-43 2-92-5-92 41" id="aL"/><path fill="#333" d="M210-169c-67 3-38 105-44 169h-31v-121c0-29-5-50-35-48C34-165 62-65 56 0H25l-1-190h30c1 10-1 24 2 32 10-44 99-50 107 0 11-21 27-35 58-36 85-2 47 119 55 194h-31v-121c0-29-5-49-35-48" id="aM"/><path fill="#333" d="M100-194c63 0 86 42 84 106H49c0 40 14 67 53 68 26 1 43-12 49-29l28 8c-11 28-37 45-77 45C44 4 14-33 15-96c1-61 26-98 85-98zm52 81c6-60-76-77-97-28-3 7-6 17-6 28h103" id="aN"/><path fill="#333" d="M33-154v-36h34v36H33zM33 0v-36h34V0H33" id="aO"/><g id="d"><use transform="matrix(0.05,0,0,0.05,0,0)" xlink:href="#aK"/><use transform="matrix(0.05,0,0,0.05,10,0)" xlink:href="#aL"/><use transform="matrix(0.05,0,0,0.05,20,0)" xlink:href="#aM"/><use transform="matrix(0.05,0,0,0.05,34.95,0)" xlink:href="#aN"/><use transform="matrix(0.05,0,0,0.05,44.95,0)" xlink:href="#aO"/></g><path fill="#333" d="M185-189c-5-48-123-54-124 2 14 75 158 14 163 119 3 78-121 87-175 55-17-10-28-26-33-46l33-7c5 56 141 63 141-1 0-78-155-14-162-118-5-82 145-84 179-34 5 7 8 16 11 25" id="aP"/><path fill="#333" d="M59-47c-2 24 18 29 38 22v24C64 9 27 4 27-40v-127H5v-23h24l9-43h21v43h35v23H59v120" id="aQ"/><path fill="#333" d="M114-163C36-179 61-72 57 0H25l-1-190h30c1 12-1 29 2 39 6-27 23-49 58-41v29" id="aR"/><path fill="#333" d="M24-231v-30h32v30H24zM24 0v-190h32V0H24" id="aS"/><path fill="#333" d="M177-190C167-65 218 103 67 71c-23-6-38-20-44-43l32-5c15 47 100 32 89-28v-30C133-14 115 1 83 1 29 1 15-40 15-95c0-56 16-97 71-98 29-1 48 16 59 35 1-10 0-23 2-32h30zM94-22c36 0 50-32 50-73 0-42-14-75-50-75-39 0-46 34-46 75s6 73 46 73" id="aT"/><g id="e"><use transform="matrix(0.05,0,0,0.05,0,0)" xlink:href="#aP"/><use transform="matrix(0.05,0,0,0.05,12,0)" xlink:href="#aQ"/><use transform="matrix(0.05,0,0,0.05,17,0)" xlink:href="#aR"/><use transform="matrix(0.05,0,0,0.05,22.95,0)" xlink:href="#aS"/><use transform="matrix(0.05,0,0,0.05,26.899999999999995,0)" xlink:href="#aK"/><use transform="matrix(0.05,0,0,0.05,36.9,0)" xlink:href="#aT"/></g><path fill="#333" d="M115-194c55 1 70 41 70 98S169 2 115 4C84 4 66-9 55-30l1 105H24l-1-265h31l2 30c10-21 28-34 59-34zm-8 174c40 0 45-34 45-75s-6-73-45-74c-42 0-51 32-51 76 0 43 10 73 51 73" id="aU"/><path fill="#333" d="M96-169c-40 0-48 33-48 73s9 75 48 75c24 0 41-14 43-38l32 2c-6 37-31 61-74 61-59 0-76-41-82-99-10-93 101-131 147-64 4 7 5 14 7 22l-32 3c-4-21-16-35-41-35" id="aV"/><g id="f"><use transform="matrix(0.05,0,0,0.05,0,0)" xlink:href="#aU"/><use transform="matrix(0.05,0,0,0.05,10,0)" xlink:href="#aR"/><use transform="matrix(0.05,0,0,0.05,15.949999999999998,0)" xlink:href="#aS"/><use transform="matrix(0.05,0,0,0.05,19.9,0)" xlink:href="#aV"/><use transform="matrix(0.05,0,0,0.05,28.899999999999995,0)" xlink:href="#aN"/><use transform="matrix(0.05,0,0,0.05,38.9,0)" xlink:href="#aO"/></g><path fill="#333" d="M85-194c31 0 48 13 60 33l-1-100h32l1 261h-30c-2-10 0-23-3-31C134-8 116 4 85 4 32 4 16-35 15-94c0-66 23-100 70-100zm9 24c-40 0-46 34-46 75 0 40 6 74 45 74 42 0 51-32 51-76 0-42-9-74-50-73" id="aW"/><path fill="#333" d="M100-194c62-1 85 37 85 99 1 63-27 99-86 99S16-35 15-95c0-66 28-99 85-99zM99-20c44 1 53-31 53-75 0-43-8-75-51-75s-53 32-53 75 10 74 51 75" id="aX"/><path fill="#333" d="M84 4C-5 8 30-112 23-190h32v120c0 31 7 50 39 49 72-2 45-101 50-169h31l1 190h-30c-1-10 1-25-2-33-11 22-28 36-60 37" id="aY"/><path fill="#333" d="M115-194c53 0 69 39 70 98 0 66-23 100-70 100C84 3 66-7 56-30L54 0H23l1-261h32v101c10-23 28-34 59-34zm-8 174c40 0 45-34 45-75 0-40-5-75-45-74-42 0-51 32-51 76 0 43 10 73 51 73" id="aZ"/><path fill="#333" d="M24 0v-261h32V0H24" id="ba"/><g id="g"><use transform="matrix(0.05,0,0,0.05,0,0)" xlink:href="#aW"/><use transform="matrix(0.05,0,0,0.05,10,0)" xlink:href="#aX"/><use transform="matrix(0.05,0,0,0.05,20,0)" xlink:href="#aY"/><use transform="matrix(0.05,0,0,0.05,30,0)" xlink:href="#aZ"/><use transform="matrix(0.05,0,0,0.05,40,0)" xlink:href="#ba"/><use transform="matrix(0.05,0,0,0.05,43.95,0)" xlink:href="#aN"/></g><path fill="#333" d="M118-107v75H92v-75H18v-26h74v-75h26v75h74v26h-74" id="bb"/><use transform="matrix(0.05,0,0,0.05,0,0)" xlink:href="#bb" id="h"/><path fill="#333" d="M190 0L58-211 59 0H30v-248h39L202-35l-2-213h31V0h-41" id="bc"/><path fill="#333" d="M87 75C49 33 22-17 22-94c0-76 28-126 65-167h31c-38 41-64 92-64 168S80 34 118 75H87" id="bd"/><path fill="#333" d="M33-261c38 41 65 92 65 168S71 34 33 75H2C39 34 66-17 66-93S39-220 2-261h31" id="be"/><g id="i"><use transform="matrix(0.05,0,0,0.05,0,0)" xlink:href="#aT"/><use transform="matrix(0.05,0,0,0.05,10,0)" xlink:href="#aN"/><use transform="matrix(0.05,0,0,0.05,20,0)" xlink:href="#aQ"/><use transform="matrix(0.05,0,0,0.05,25,0)" xlink:href="#bc"/><use transform="matrix(0.05,0,0,0.05,37.95,0)" xlink:href="#aL"/><use transform="matrix(0.05,0,0,0.05,47.95,0)" xlink:href="#aM"/><use transform="matrix(0.05,0,0,0.05,62.900000000000006,0)" xlink:href="#aN"/><use transform="matrix(0.05,0,0,0.05,72.9,0)" xlink:href="#bd"/><use transform="matrix(0.05,0,0,0.05,78.85000000000001,0)" xlink:href="#be"/><use transform="matrix(0.05,0,0,0.05,84.80000000000001,0)" xlink:href="#aO"/></g><path fill="#333" d="M30-248c87 1 191-15 191 75 0 78-77 80-158 76V0H30v-248zm33 125c57 0 124 11 124-50 0-59-68-47-124-48v98" id="bf"/><g id="j"><use transform="matrix(0.05,0,0,0.05,0,0)" xlink:href="#aT"/><use transform="matrix(0.05,0,0,0.05,10,0)" xlink:href="#aN"/><use transform="matrix(0.05,0,0,0.05,20,0)" xlink:href="#aQ"/><use transform="matrix(0.05,0,0,0.05,25,0)" xlink:href="#bf"/><use transform="matrix(0.05,0,0,0.05,37,0)" xlink:href="#aR"/><use transform="matrix(0.05,0,0,0.05,42.95,0)" xlink:href="#aS"/><use transform="matrix(0.05,0,0,0.05,46.900000000000006,0)" xlink:href="#aV"/><use transform="matrix(0.05,0,0,0.05,55.900000000000006,0)" xlink:href="#aN"/><use transform="matrix(0.05,0,0,0.05,65.9,0)" xlink:href="#bd"/><use transform="matrix(0.05,0,0,0.05,71.85000000000001,0)" xlink:href="#be"/><use transform="matrix(0.05,0,0,0.05,77.80000000000001,0)" xlink:href="#aO"/></g><path fill="#a9afb8" d="M67-125c0 53 21 87 73 88 37 1 54-22 65-47l45 17C233-25 199 4 140 4 58 4 20-42 15-125 8-235 124-281 211-232c18 10 29 29 36 50l-46 12c-8-25-30-41-62-41-52 0-71 34-72 86" id="bg"/><path fill="#a9afb8" d="M169-182c-1-43-94-46-97-3 18 66 151 10 154 114 3 95-165 93-204 36-6-8-10-19-12-30l50-8c3 46 112 56 116 5-17-69-150-10-154-114-4-87 153-88 188-35 5 8 8 18 10 28" id="bh"/><g id="k"><use transform="matrix(0.0728395061728395,0,0,0.0728395061728395,0,0)" xlink:href="#bg"/><use transform="matrix(0.0728395061728395,0,0,0.0728395061728395,18.86543209876543,0)" xlink:href="#bh"/></g><path fill="#a9afb8" d="M115-159c48 0 72 30 72 78 0 54-30 85-83 85-64 0-91-50-91-122 0-98 58-163 141-120 15 8 21 24 27 44l-47 6c-5-31-48-31-61-4-7 14-11 33-11 60 9-17 28-27 53-27zM102-35c24 0 36-20 36-45s-11-43-37-43c-23 0-36 14-36 38 0 27 11 50 37 50" id="bi"/><path fill="#a9afb8" d="M139-81c0-46-55-55-73-27H18l9-140h149v37H72l-4 63c44-38 133-4 122 66C201 21 21 35 11-62l49-4c5 18 15 30 39 30 26 0 40-18 40-45" id="bj"/><g id="l"><use transform="matrix(0.0728395061728395,0,0,0.0728395061728395,0,0)" xlink:href="#bi"/><use transform="matrix(0.0728395061728395,0,0,0.0728395061728395,14.5679012345679,0)" xlink:href="#bi"/><use transform="matrix(0.0728395061728395,0,0,0.0728395061728395,29.1358024691358,0)" xlink:href="#bj"/></g><path fill="#a9afb8" d="M14-72v-43h91v43H14" id="bk"/><use transform="matrix(0.0728395061728395,0,0,0.0728395061728395,0,0)" xlink:href="#bk" id="m"/><path fill="#a9afb8" d="M186 0v-106H76V0H24v-248h52v99h110v-99h50V0h-50" id="bl"/><path fill="#a9afb8" d="M275 0h-61l-44-196L126 0H64L0-248h53L97-49l45-199h58l43 199 44-199h52" id="bm"/><g id="n"><use transform="matrix(0.0728395061728395,0,0,0.0728395061728395,0,0)" xlink:href="#bl"/><use transform="matrix(0.0728395061728395,0,0,0.0728395061728395,18.86543209876543,0)" xlink:href="#bm"/></g><path fill="#a9afb8" d="M23 0v-37h61v-169l-59 37v-38l62-41h46v211h57V0H23" id="bn"/><use transform="matrix(0.0728395061728395,0,0,0.0728395061728395,0,0)" xlink:href="#bn" id="o"/><path fill="#a9afb8" d="M30-248c118-7 216 8 213 122C240-48 200 0 122 0H30v-248zM63-27c89 8 146-16 146-99s-60-101-146-95v194" id="bo"/><path fill="#a9afb8" d="M24-231v-30h32v30H24zM24 0v-190h32V0H24" id="bp"/><path fill="#a9afb8" d="M117-194c89-4 53 116 60 194h-32v-121c0-31-8-49-39-48C34-167 62-67 57 0H25l-1-190h30c1 10-1 24 2 32 11-22 29-35 61-36" id="bq"/><path fill="#a9afb8" d="M177-190C167-65 218 103 67 71c-23-6-38-20-44-43l32-5c15 47 100 32 89-28v-30C133-14 115 1 83 1 29 1 15-40 15-95c0-56 16-97 71-98 29-1 48 16 59 35 1-10 0-23 2-32h30zM94-22c36 0 50-32 50-73 0-42-14-75-50-75-39 0-46 34-46 75s6 73 46 73" id="br"/><path fill="#a9afb8" d="M16-82v-28h88v28H16" id="bs"/><path fill="#a9afb8" d="M190 0L58-211 59 0H30v-248h39L202-35l-2-213h31V0h-41" id="bt"/><path fill="#a9afb8" d="M141-36C126-15 110 5 73 4 37 3 15-17 15-53c-1-64 63-63 125-63 3-35-9-54-41-54-24 1-41 7-42 31l-33-3c5-37 33-52 76-52 45 0 72 20 72 64v82c-1 20 7 32 28 27v20c-31 9-61-2-59-35zM48-53c0 20 12 33 32 33 41-3 63-29 60-74-43 2-92-5-92 41" id="bu"/><g id="p"><use transform="matrix(0.04248971193415638,0,0,0.04248971193415638,0,0)" xlink:href="#bo"/><use transform="matrix(0.04248971193415638,0,0,0.04248971193415638,11.004835390946502,0)" xlink:href="#bp"/><use transform="matrix(0.04248971193415638,0,0,0.04248971193415638,14.361522633744855,0)" xlink:href="#bq"/><use transform="matrix(0.04248971193415638,0,0,0.04248971193415638,22.85946502057613,0)" xlink:href="#br"/><use transform="matrix(0.04248971193415638,0,0,0.04248971193415638,31.357407407407408,0)" xlink:href="#bs"/><use transform="matrix(0.04248971193415638,0,0,0.04248971193415638,36.413683127572014,0)" xlink:href="#bt"/><use transform="matrix(0.04248971193415638,0,0,0.04248971193415638,47.41851851851852,0)" xlink:href="#bu"/><use transform="matrix(0.04248971193415638,0,0,0.04248971193415638,55.916460905349794,0)" xlink:href="#bq"/></g><path fill="#a9afb8" d="M197 0v-115H63V0H30v-248h33v105h134v-105h34V0h-34" id="bv"/><path fill="#a9afb8" d="M135-143c-3-34-86-38-87 0 15 53 115 12 119 90S17 21 10-45l28-5c4 36 97 45 98 0-10-56-113-15-118-90-4-57 82-63 122-42 12 7 21 19 24 35" id="bw"/><path fill="#a9afb8" d="M84 4C-5 8 30-112 23-190h32v120c0 31 7 50 39 49 72-2 45-101 50-169h31l1 190h-30c-1-10 1-25-2-33-11 22-28 36-60 37" id="bx"/><g id="q"><use transform="matrix(0.04248971193415638,0,0,0.04248971193415638,0,0)" xlink:href="#bv"/><use transform="matrix(0.04248971193415638,0,0,0.04248971193415638,11.004835390946502,0)" xlink:href="#bw"/><use transform="matrix(0.04248971193415638,0,0,0.04248971193415638,18.65298353909465,0)" xlink:href="#bx"/></g><path fill="#a9afb8" d="M32 76v-337h29V76H32" id="by"/><use transform="matrix(0.04248971193415638,0,0,0.04248971193415638,0,0)" xlink:href="#by" id="r"/><path fill="#a9afb8" d="M185-189c-5-48-123-54-124 2 14 75 158 14 163 119 3 78-121 87-175 55-17-10-28-26-33-46l33-7c5 56 141 63 141-1 0-78-155-14-162-118-5-82 145-84 179-34 5 7 8 16 11 25" id="bz"/><path fill="#a9afb8" d="M100-194c63 0 86 42 84 106H49c0 40 14 67 53 68 26 1 43-12 49-29l28 8c-11 28-37 45-77 45C44 4 14-33 15-96c1-61 26-98 85-98zm52 81c6-60-76-77-97-28-3 7-6 17-6 28h103" id="bA"/><path fill="#a9afb8" d="M115-194c55 1 70 41 70 98S169 2 115 4C84 4 66-9 55-30l1 105H24l-1-265h31l2 30c10-21 28-34 59-34zm-8 174c40 0 45-34 45-75s-6-73-45-74c-42 0-51 32-51 76 0 43 10 73 51 73" id="bB"/><path fill="#a9afb8" d="M59-47c-2 24 18 29 38 22v24C64 9 27 4 27-40v-127H5v-23h24l9-43h21v43h35v23H59v120" id="bC"/><path fill="#a9afb8" d="M210-169c-67 3-38 105-44 169h-31v-121c0-29-5-50-35-48C34-165 62-65 56 0H25l-1-190h30c1 10-1 24 2 32 10-44 99-50 107 0 11-21 27-35 58-36 85-2 47 119 55 194h-31v-121c0-29-5-49-35-48" id="bD"/><path fill="#a9afb8" d="M115-194c53 0 69 39 70 98 0 66-23 100-70 100C84 3 66-7 56-30L54 0H23l1-261h32v101c10-23 28-34 59-34zm-8 174c40 0 45-34 45-75 0-40-5-75-45-74-42 0-51 32-51 76 0 43 10 73 51 73" id="bE"/><path fill="#a9afb8" d="M114-163C36-179 61-72 57 0H25l-1-190h30c1 12-1 29 2 39 6-27 23-49 58-41v29" id="bF"/><g id="s"><use transform="matrix(0.04248971193415638,0,0,0.04248971193415638,0,0)" xlink:href="#bz"/><use transform="matrix(0.04248971193415638,0,0,0.04248971193415638,10.19753086419753,0)" xlink:href="#bA"/><use transform="matrix(0.04248971193415638,0,0,0.04248971193415638,18.695473251028805,0)" xlink:href="#bB"/><use transform="matrix(0.04248971193415638,0,0,0.04248971193415638,27.193415637860078,0)" xlink:href="#bC"/><use transform="matrix(0.04248971193415638,0,0,0.04248971193415638,31.442386831275712,0)" xlink:href="#bA"/><use transform="matrix(0.04248971193415638,0,0,0.04248971193415638,39.94032921810699,0)" xlink:href="#bD"/><use transform="matrix(0.04248971193415638,0,0,0.04248971193415638,52.64475308641975,0)" xlink:href="#bE"/><use transform="matrix(0.04248971193415638,0,0,0.04248971193415638,61.142695473251024,0)" xlink:href="#bA"/><use transform="matrix(0.04248971193415638,0,0,0.04248971193415638,69.6406378600823,0)" xlink:href="#bF"/></g><path fill="#a9afb8" d="M101-251c82-7 93 87 43 132L82-64C71-53 59-42 53-27h129V0H18c2-99 128-94 128-182 0-28-16-43-45-43s-46 15-49 41l-32-3c6-41 34-60 81-64" id="bG"/><path fill="#a9afb8" d="M54-142c48-35 137-8 131 61C196 18 31 33 14-55l32-4c7 23 22 37 52 37 35-1 51-22 54-58 4-55-73-65-99-34H22l8-134h141v27H59" id="bH"/><path fill="#a9afb8" d="M68-38c1 34 0 65-14 84H32c9-13 17-26 17-46H33v-38h35" id="bI"/><g id="t"><use transform="matrix(0.04248971193415638,0,0,0.04248971193415638,0,0)" xlink:href="#bG"/><use transform="matrix(0.04248971193415638,0,0,0.04248971193415638,8.497942386831275,0)" xlink:href="#bH"/><use transform="matrix(0.04248971193415638,0,0,0.04248971193415638,16.99588477366255,0)" xlink:href="#bI"/></g><path fill="#a9afb8" d="M101-251c68 0 85 55 85 127S166 4 100 4C33 4 14-52 14-124c0-73 17-127 87-127zm-1 229c47 0 54-49 54-102s-4-102-53-102c-51 0-55 48-55 102 0 53 5 102 54 102" id="bJ"/><path fill="#a9afb8" d="M126-127c33 6 58 20 58 59 0 88-139 92-164 29-3-8-5-16-6-25l32-3c6 27 21 44 54 44 32 0 52-15 52-46 0-38-36-46-79-43v-28c39 1 72-4 72-42 0-27-17-43-46-43-28 0-47 15-49 41l-32-3c6-42 35-63 81-64 48-1 79 21 79 65 0 36-21 52-52 59" id="bK"/><g id="u"><use transform="matrix(0.04248971193415638,0,0,0.04248971193415638,0,0)" xlink:href="#bG"/><use transform="matrix(0.04248971193415638,0,0,0.04248971193415638,8.497942386831275,0)" xlink:href="#bJ"/><use transform="matrix(0.04248971193415638,0,0,0.04248971193415638,16.99588477366255,0)" xlink:href="#bG"/><use transform="matrix(0.04248971193415638,0,0,0.04248971193415638,25.493827160493822,0)" xlink:href="#bK"/></g><path fill="#333" d="M110-194c64 0 96 36 96 99 0 64-35 99-97 99-61 0-95-36-95-99 0-62 34-99 96-99zm-1 164c35 0 45-28 45-65 0-40-10-65-43-65-34 0-45 26-45 65 0 36 10 65 43 65" id="bL"/><path fill="#333" d="M135-194c87-1 58 113 63 194h-50c-7-57 23-157-34-157-59 0-34 97-39 157H25l-1-190h47c2 12-1 28 3 38 12-26 28-41 61-42" id="bM"/><path fill="#333" d="M88-194c31-1 46 15 58 34l-1-101h50l1 261h-48c-2-10 0-23-3-31C134-8 116 4 84 4 32 4 16-41 15-95c0-56 19-97 73-99zm17 164c33 0 40-30 41-66 1-37-9-64-41-64s-38 30-39 65c0 43 13 65 39 65" id="bN"/><path fill="#333" d="M25-224v-37h50v37H25zM25 0v-190h50V0H25" id="bO"/><path fill="#333" d="M220-157c-53 9-28 100-34 157h-49v-107c1-27-5-49-29-50C55-147 81-57 75 0H25l-1-190h47c2 12-1 28 3 38 10-53 101-56 108 0 13-22 24-43 59-42 82 1 51 116 57 194h-49v-107c-1-25-5-48-29-50" id="bP"/><path fill="#333" d="M115-3C79 11 28 4 28-45v-112H4v-33h27l15-45h31v45h36v33H77v99c-1 23 16 31 38 25v30" id="bQ"/><g id="v"><use transform="matrix(0.05,0,0,0.05,0,0)" xlink:href="#aG"/><use transform="matrix(0.05,0,0,0.05,12.950000000000001,0)" xlink:href="#bL"/><use transform="matrix(0.05,0,0,0.05,23.900000000000002,0)" xlink:href="#bM"/><use transform="matrix(0.05,0,0,0.05,34.85,0)" xlink:href="#bN"/><use transform="matrix(0.05,0,0,0.05,45.800000000000004,0)" xlink:href="#bO"/><use transform="matrix(0.05,0,0,0.05,50.800000000000004,0)" xlink:href="#bP"/><use transform="matrix(0.05,0,0,0.05,66.80000000000001,0)" xlink:href="#aB"/><use transform="matrix(0.05,0,0,0.05,76.80000000000001,0)" xlink:href="#bM"/><use transform="matrix(0.05,0,0,0.05,87.75000000000001,0)" xlink:href="#bQ"/></g><path fill="#333" d="M24 0v-248h52V0H24" id="bR"/><path fill="#333" d="M24-248c120-7 223 5 221 122C244-46 201 0 124 0H24v-248zM76-40c74 7 117-18 117-86 0-67-45-88-117-82v168" id="bS"/><path fill="#333" d="M24 0v-248h195v40H76v63h132v40H76v65h150V0H24" id="bT"/><path fill="#333" d="M144 0l-44-69L55 0H2l70-98-66-92h53l41 62 40-62h54l-67 91 71 99h-54" id="bU"/><path fill="#333" d="M190-63c-7 42-38 67-86 67-59 0-84-38-90-98-12-110 154-137 174-36l-49 2c-2-19-15-32-35-32-30 0-35 28-38 64-6 74 65 87 74 30" id="bV"/><path fill="#333" d="M135-194c53 0 70 44 70 98 0 56-19 98-73 100-31 1-45-17-59-34 3 33 2 69 2 105H25l-1-265h48c2 10 0 23 3 31 11-24 29-35 60-35zM114-30c33 0 39-31 40-66 0-38-9-64-40-64-56 0-55 130 0 130" id="bW"/><g id="w"><use transform="matrix(0.05,0,0,0.05,0,0)" xlink:href="#aA"/><use transform="matrix(0.05,0,0,0.05,12.950000000000001,0)" xlink:href="#aE"/><use transform="matrix(0.05,0,0,0.05,22.950000000000003,0)" xlink:href="#aI"/><use transform="matrix(0.05,0,0,0.05,32.95,0)" xlink:href="#aB"/><use transform="matrix(0.05,0,0,0.05,42.95,0)" xlink:href="#bR"/><use transform="matrix(0.05,0,0,0.05,47.95,0)" xlink:href="#bM"/><use transform="matrix(0.05,0,0,0.05,58.900000000000006,0)" xlink:href="#aC"/><use transform="matrix(0.05,0,0,0.05,68.9,0)" xlink:href="#aE"/><use transform="matrix(0.05,0,0,0.05,78.9,0)" xlink:href="#aH"/><use transform="matrix(0.05,0,0,0.05,83.9,0)" xlink:href="#bO"/><use transform="matrix(0.05,0,0,0.05,88.9,0)" xlink:href="#bN"/><use transform="matrix(0.05,0,0,0.05,99.85000000000001,0)" xlink:href="#bS"/><use transform="matrix(0.05,0,0,0.05,112.80000000000001,0)" xlink:href="#aE"/><use transform="matrix(0.05,0,0,0.05,122.80000000000001,0)" xlink:href="#bQ"/><use transform="matrix(0.05,0,0,0.05,128.75,0)" xlink:href="#aE"/><use transform="matrix(0.05,0,0,0.05,138.75,0)" xlink:href="#bT"/><use transform="matrix(0.05,0,0,0.05,150.75,0)" xlink:href="#bU"/><use transform="matrix(0.05,0,0,0.05,160.75,0)" xlink:href="#bV"/><use transform="matrix(0.05,0,0,0.05,170.75,0)" xlink:href="#aB"/><use transform="matrix(0.05,0,0,0.05,180.75,0)" xlink:href="#bW"/><use transform="matrix(0.05,0,0,0.05,191.7,0)" xlink:href="#bQ"/><use transform="matrix(0.05,0,0,0.05,197.64999999999998,0)" xlink:href="#bO"/><use transform="matrix(0.05,0,0,0.05,202.64999999999998,0)" xlink:href="#bL"/><use transform="matrix(0.05,0,0,0.05,213.59999999999997,0)" xlink:href="#bM"/></g><path fill="#333" d="M135-143c-3-34-86-38-87 0 15 53 115 12 119 90S17 21 10-45l28-5c4 36 97 45 98 0-10-56-113-15-118-90-4-57 82-63 122-42 12 7 21 19 24 35" id="bX"/><path fill="#333" d="M137 0h-34L2-248h35l83 218 83-218h36" id="bY"/><path fill="#333" d="M232-93c-1 65-40 97-104 97C67 4 28-28 28-90v-158h33c8 89-33 224 67 224 102 0 64-133 71-224h33v155" id="bZ"/><path fill="#333" d="M33 0v-248h34V0H33" id="ca"/><path fill="#333" d="M30-248c118-7 216 8 213 122C240-48 200 0 122 0H30v-248zM63-27c89 8 146-16 146-99s-60-101-146-95v194" id="cb"/><g id="x"><use transform="matrix(0.05,0,0,0.05,0,0)" xlink:href="#bX"/><use transform="matrix(0.05,0,0,0.05,9,0)" xlink:href="#aN"/><use transform="matrix(0.05,0,0,0.05,19,0)" xlink:href="#aR"/><use transform="matrix(0.05,0,0,0.05,24.95,0)" xlink:href="#aS"/><use transform="matrix(0.05,0,0,0.05,28.899999999999995,0)" xlink:href="#aL"/><use transform="matrix(0.05,0,0,0.05,38.9,0)" xlink:href="#ba"/><use transform="matrix(0.05,0,0,0.05,42.85,0)" xlink:href="#bY"/><use transform="matrix(0.05,0,0,0.05,53.85,0)" xlink:href="#aN"/><use transform="matrix(0.05,0,0,0.05,63.85,0)" xlink:href="#aR"/><use transform="matrix(0.05,0,0,0.05,69.8,0)" xlink:href="#bX"/><use transform="matrix(0.05,0,0,0.05,78.8,0)" xlink:href="#aS"/><use transform="matrix(0.05,0,0,0.05,82.75,0)" xlink:href="#aX"/><use transform="matrix(0.05,0,0,0.05,92.75,0)" xlink:href="#aK"/><use transform="matrix(0.05,0,0,0.05,102.75,0)" xlink:href="#bZ"/><use transform="matrix(0.05,0,0,0.05,115.7,0)" xlink:href="#ca"/><use transform="matrix(0.05,0,0,0.05,120.7,0)" xlink:href="#cb"/><use transform="matrix(0.05,0,0,0.05,133.65,0)" xlink:href="#aO"/></g><g id="y"><use transform="matrix(0.05,0,0,0.05,0,0)" xlink:href="#ca"/><use transform="matrix(0.05,0,0,0.05,5,0)" xlink:href="#aK"/><use transform="matrix(0.05,0,0,0.05,15,0)" xlink:href="#aQ"/></g><path fill="#333" d="M127-220V0H93v-220H8v-28h204v28h-85" id="cc"/><path fill="#333" d="M179-190L93 31C79 59 56 82 12 73V49c39 6 53-20 64-50L1-190h34L92-34l54-156h33" id="cd"/><g id="z"><use transform="matrix(0.05,0,0,0.05,0,0)" xlink:href="#aW"/><use transform="matrix(0.05,0,0,0.05,10,0)" xlink:href="#aL"/><use transform="matrix(0.05,0,0,0.05,20,0)" xlink:href="#aQ"/><use transform="matrix(0.05,0,0,0.05,25,0)" xlink:href="#aL"/><use transform="matrix(0.05,0,0,0.05,35,0)" xlink:href="#cc"/><use transform="matrix(0.05,0,0,0.05,44.95,0)" xlink:href="#cd"/><use transform="matrix(0.05,0,0,0.05,53.95,0)" xlink:href="#aU"/><use transform="matrix(0.05,0,0,0.05,63.95,0)" xlink:href="#aN"/><use transform="matrix(0.05,0,0,0.05,73.95,0)" xlink:href="#aO"/></g><g id="A"><use transform="matrix(0.05,0,0,0.05,0,0)" xlink:href="#aP"/><use transform="matrix(0.05,0,0,0.05,12,0)" xlink:href="#aQ"/><use transform="matrix(0.05,0,0,0.05,17,0)" xlink:href="#aR"/><use transform="matrix(0.05,0,0,0.05,22.95,0)" xlink:href="#aS"/><use transform="matrix(0.05,0,0,0.05,26.899999999999995,0)" xlink:href="#aK"/><use transform="matrix(0.05,0,0,0.05,36.9,0)" xlink:href="#aT"/></g><g id="B"><use transform="matrix(0.05,0,0,0.05,0,0)" xlink:href="#aT"/><use transform="matrix(0.05,0,0,0.05,10,0)" xlink:href="#aN"/><use transform="matrix(0.05,0,0,0.05,20,0)" xlink:href="#aQ"/><use transform="matrix(0.05,0,0,0.05,25,0)" xlink:href="#cb"/><use transform="matrix(0.05,0,0,0.05,37.95,0)" xlink:href="#aL"/><use transform="matrix(0.05,0,0,0.05,47.95,0)" xlink:href="#aQ"/><use transform="matrix(0.05,0,0,0.05,52.95,0)" xlink:href="#aL"/><use transform="matrix(0.05,0,0,0.05,62.95,0)" xlink:href="#cc"/><use transform="matrix(0.05,0,0,0.05,72.9,0)" xlink:href="#cd"/><use transform="matrix(0.05,0,0,0.05,81.9,0)" xlink:href="#aU"/><use transform="matrix(0.05,0,0,0.05,91.9,0)" xlink:href="#aN"/><use transform="matrix(0.05,0,0,0.05,101.9,0)" xlink:href="#bd"/><use transform="matrix(0.05,0,0,0.05,107.85000000000001,0)" xlink:href="#be"/><use transform="matrix(0.05,0,0,0.05,113.80000000000001,0)" xlink:href="#aO"/></g><g id="C"><use transform="matrix(0.05,0,0,0.05,0,0)" xlink:href="#bR"/><use transform="matrix(0.05,0,0,0.05,5,0)" xlink:href="#bM"/><use transform="matrix(0.05,0,0,0.05,15.950000000000001,0)" xlink:href="#aC"/><use transform="matrix(0.05,0,0,0.05,25.950000000000003,0)" xlink:href="#aE"/><use transform="matrix(0.05,0,0,0.05,35.95,0)" xlink:href="#aH"/><use transform="matrix(0.05,0,0,0.05,40.95,0)" xlink:href="#bO"/><use transform="matrix(0.05,0,0,0.05,45.95,0)" xlink:href="#bN"/><use transform="matrix(0.05,0,0,0.05,56.900000000000006,0)" xlink:href="#bS"/><use transform="matrix(0.05,0,0,0.05,69.85000000000001,0)" xlink:href="#aE"/><use transform="matrix(0.05,0,0,0.05,79.85000000000001,0)" xlink:href="#bQ"/><use transform="matrix(0.05,0,0,0.05,85.80000000000001,0)" xlink:href="#aE"/><use transform="matrix(0.05,0,0,0.05,95.80000000000001,0)" xlink:href="#bT"/><use transform="matrix(0.05,0,0,0.05,107.80000000000001,0)" xlink:href="#bU"/><use transform="matrix(0.05,0,0,0.05,117.80000000000001,0)" xlink:href="#bV"/><use transform="matrix(0.05,0,0,0.05,127.80000000000001,0)" xlink:href="#aB"/><use transform="matrix(0.05,0,0,0.05,137.8,0)" xlink:href="#bW"/><use transform="matrix(0.05,0,0,0.05,148.75,0)" xlink:href="#bQ"/><use transform="matrix(0.05,0,0,0.05,154.7,0)" xlink:href="#bO"/><use transform="matrix(0.05,0,0,0.05,159.7,0)" xlink:href="#bL"/><use transform="matrix(0.05,0,0,0.05,170.64999999999998,0)" xlink:href="#bM"/></g><path fill="#333" d="M140-251c81 0 123 46 123 126C263-46 219 4 140 4 59 4 17-45 17-125s42-126 123-126zm0 227c63 0 89-41 89-101s-29-99-89-99c-61 0-89 39-89 99S79-25 140-24" id="ce"/><path fill="#333" d="M24-231v-30h32v30H24zM-9 49c24 4 33-6 33-30v-209h32V24c2 40-23 58-65 49V49" id="cf"/><g id="D"><use transform="matrix(0.05,0,0,0.05,0,0)" xlink:href="#ce"/><use transform="matrix(0.05,0,0,0.05,14,0)" xlink:href="#aZ"/><use transform="matrix(0.05,0,0,0.05,24,0)" xlink:href="#cf"/><use transform="matrix(0.05,0,0,0.05,27.950000000000003,0)" xlink:href="#aN"/><use transform="matrix(0.05,0,0,0.05,37.95,0)" xlink:href="#aV"/><use transform="matrix(0.05,0,0,0.05,46.95,0)" xlink:href="#aQ"/></g><g id="E"><use transform="matrix(0.05,0,0,0.05,0,0)" xlink:href="#aT"/><use transform="matrix(0.05,0,0,0.05,10,0)" xlink:href="#aN"/><use transform="matrix(0.05,0,0,0.05,20,0)" xlink:href="#aQ"/><use transform="matrix(0.05,0,0,0.05,25,0)" xlink:href="#cb"/><use transform="matrix(0.05,0,0,0.05,37.95,0)" xlink:href="#aL"/><use transform="matrix(0.05,0,0,0.05,47.95,0)" xlink:href="#aQ"/><use transform="matrix(0.05,0,0,0.05,52.95,0)" xlink:href="#aL"/><use transform="matrix(0.05,0,0,0.05,62.95,0)" xlink:href="#bY"/><use transform="matrix(0.05,0,0,0.05,73.6,0)" xlink:href="#aL"/><use transform="matrix(0.05,0,0,0.05,83.6,0)" xlink:href="#ba"/><use transform="matrix(0.05,0,0,0.05,87.55,0)" xlink:href="#aY"/><use transform="matrix(0.05,0,0,0.05,97.55,0)" xlink:href="#aN"/><use transform="matrix(0.05,0,0,0.05,107.55000000000001,0)" xlink:href="#bd"/><use transform="matrix(0.05,0,0,0.05,113.5,0)" xlink:href="#be"/><use transform="matrix(0.05,0,0,0.05,119.45,0)" xlink:href="#aO"/></g><g id="F"><use transform="matrix(0.05,0,0,0.05,0,0)" xlink:href="#ce"/><use transform="matrix(0.05,0,0,0.05,14,0)" xlink:href="#aZ"/><use transform="matrix(0.05,0,0,0.05,24,0)" xlink:href="#cf"/><use transform="matrix(0.05,0,0,0.05,27.950000000000003,0)" xlink:href="#aN"/><use transform="matrix(0.05,0,0,0.05,37.95,0)" xlink:href="#aV"/><use transform="matrix(0.05,0,0,0.05,46.95,0)" xlink:href="#aQ"/></g><g id="G"><use transform="matrix(0.05,0,0,0.05,0,0)" xlink:href="#aQ"/><use transform="matrix(0.05,0,0,0.05,5,0)" xlink:href="#aX"/><use transform="matrix(0.05,0,0,0.05,15,0)" xlink:href="#aP"/><use transform="matrix(0.05,0,0,0.05,27,0)" xlink:href="#aQ"/><use transform="matrix(0.05,0,0,0.05,32,0)" xlink:href="#aR"/><use transform="matrix(0.05,0,0,0.05,37.95,0)" xlink:href="#aS"/><use transform="matrix(0.05,0,0,0.05,41.900000000000006,0)" xlink:href="#aK"/><use transform="matrix(0.05,0,0,0.05,51.900000000000006,0)" xlink:href="#aT"/><use transform="matrix(0.05,0,0,0.05,61.900000000000006,0)" xlink:href="#bd"/><use transform="matrix(0.05,0,0,0.05,67.85000000000001,0)" xlink:href="#be"/><use transform="matrix(0.05,0,0,0.05,73.80000000000001,0)" xlink:href="#aO"/></g><g id="H"><use transform="matrix(0.04938271604938272,0,0,0.04938271604938272,0,0)" xlink:href="#bT"/><use transform="matrix(0.04938271604938272,0,0,0.04938271604938272,11.851851851851853,0)" xlink:href="#bU"/><use transform="matrix(0.04938271604938272,0,0,0.04938271604938272,21.7283950617284,0)" xlink:href="#bQ"/><use transform="matrix(0.04938271604938272,0,0,0.04938271604938272,27.604938271604947,0)" xlink:href="#aB"/><use transform="matrix(0.04938271604938272,0,0,0.04938271604938272,37.48148148148149,0)" xlink:href="#bM"/><use transform="matrix(0.04938271604938272,0,0,0.04938271604938272,48.296296296296305,0)" xlink:href="#bN"/><use transform="matrix(0.04938271604938272,0,0,0.04938271604938272,59.111111111111114,0)" xlink:href="#aI"/></g><path fill="#333" d="M76-208v77h127v40H76V0H24v-248h183v40H76" id="cg"/><path fill="#333" d="M24 0v-248h52v208h133V0H24" id="ch"/><g id="I"><use transform="matrix(0.05,0,0,0.05,0,0)" xlink:href="#cg"/><use transform="matrix(0.05,0,0,0.05,10.950000000000001,0)" xlink:href="#bO"/><use transform="matrix(0.05,0,0,0.05,15.950000000000001,0)" xlink:href="#aH"/><use transform="matrix(0.05,0,0,0.05,20.950000000000003,0)" xlink:href="#aB"/><use transform="matrix(0.05,0,0,0.05,30.950000000000003,0)" xlink:href="#ch"/><use transform="matrix(0.05,0,0,0.05,41.900000000000006,0)" xlink:href="#bL"/><use transform="matrix(0.05,0,0,0.05,52.85,0)" xlink:href="#aE"/><use transform="matrix(0.05,0,0,0.05,62.85,0)" xlink:href="#bN"/><use transform="matrix(0.05,0,0,0.05,73.80000000000001,0)" xlink:href="#aB"/><use transform="matrix(0.05,0,0,0.05,83.80000000000001,0)" xlink:href="#aD"/></g><g id="J"><use transform="matrix(0.05,0,0,0.05,0,0)" xlink:href="#ba"/><use transform="matrix(0.05,0,0,0.05,3.95,0)" xlink:href="#aS"/><use transform="matrix(0.05,0,0,0.05,7.9,0)" xlink:href="#aK"/><use transform="matrix(0.05,0,0,0.05,17.9,0)" xlink:href="#aN"/><use transform="matrix(0.05,0,0,0.05,27.899999999999995,0)" xlink:href="#aO"/></g><path fill="#333" d="M160-131c35 5 61 23 61 61C221 17 115-2 30 0v-248c76 3 177-17 177 60 0 33-19 50-47 57zm-97-11c50-1 110 9 110-42 0-47-63-36-110-37v79zm0 115c55-2 124 14 124-45 0-56-70-42-124-44v89" id="ci"/><g id="K"><use transform="matrix(0.05,0,0,0.05,0,0)" xlink:href="#bX"/><use transform="matrix(0.05,0,0,0.05,9,0)" xlink:href="#aU"/><use transform="matrix(0.05,0,0,0.05,19,0)" xlink:href="#ba"/><use transform="matrix(0.05,0,0,0.05,22.95,0)" xlink:href="#aS"/><use transform="matrix(0.05,0,0,0.05,26.899999999999995,0)" xlink:href="#aQ"/><use transform="matrix(0.05,0,0,0.05,31.899999999999995,0)" xlink:href="#ci"/><use transform="matrix(0.05,0,0,0.05,43.9,0)" xlink:href="#cd"/><use transform="matrix(0.05,0,0,0.05,52.900000000000006,0)" xlink:href="#aO"/></g><path fill="#333" d="M108 0H70L1-190h34L89-25l56-165h34" id="cj"/><path fill="#333" d="M63-220v92h138v28H63V0H30v-248h175v28H63" id="ck"/><g id="L"><use transform="matrix(0.05,0,0,0.05,0,0)" xlink:href="#ba"/><use transform="matrix(0.05,0,0,0.05,3.95,0)" xlink:href="#aX"/><use transform="matrix(0.05,0,0,0.05,13.949999999999998,0)" xlink:href="#aL"/><use transform="matrix(0.05,0,0,0.05,23.95,0)" xlink:href="#aW"/><use transform="matrix(0.05,0,0,0.05,33.95,0)" xlink:href="#ci"/><use transform="matrix(0.05,0,0,0.05,45.95,0)" xlink:href="#aN"/><use transform="matrix(0.05,0,0,0.05,55.95,0)" xlink:href="#cj"/><use transform="matrix(0.05,0,0,0.05,64.95,0)" xlink:href="#aN"/><use transform="matrix(0.05,0,0,0.05,74.95,0)" xlink:href="#aR"/><use transform="matrix(0.05,0,0,0.05,80.9,0)" xlink:href="#aL"/><use transform="matrix(0.05,0,0,0.05,90.9,0)" xlink:href="#aT"/><use transform="matrix(0.05,0,0,0.05,100.9,0)" xlink:href="#aN"/><use transform="matrix(0.05,0,0,0.05,110.9,0)" xlink:href="#ck"/><use transform="matrix(0.05,0,0,0.05,121.85000000000001,0)" xlink:href="#aS"/><use transform="matrix(0.05,0,0,0.05,125.80000000000001,0)" xlink:href="#ba"/><use transform="matrix(0.05,0,0,0.05,129.75,0)" xlink:href="#aN"/><use transform="matrix(0.05,0,0,0.05,139.75,0)" xlink:href="#bd"/><use transform="matrix(0.05,0,0,0.05,145.7,0)" xlink:href="#aP"/><use transform="matrix(0.05,0,0,0.05,157.7,0)" xlink:href="#aQ"/><use transform="matrix(0.05,0,0,0.05,162.7,0)" xlink:href="#aR"/><use transform="matrix(0.05,0,0,0.05,168.64999999999998,0)" xlink:href="#aS"/><use transform="matrix(0.05,0,0,0.05,172.59999999999997,0)" xlink:href="#aK"/><use transform="matrix(0.05,0,0,0.05,182.59999999999997,0)" xlink:href="#aT"/></g><path fill="#333" d="M101-234c-31-9-42 10-38 44h38v23H63V0H32v-167H5v-23h27c-7-52 17-82 69-68v24" id="cl"/><g id="M"><use transform="matrix(0.05,0,0,0.05,0,0)" xlink:href="#cl"/><use transform="matrix(0.05,0,0,0.05,5,0)" xlink:href="#aS"/><use transform="matrix(0.05,0,0,0.05,8.95,0)" xlink:href="#ba"/><use transform="matrix(0.05,0,0,0.05,12.899999999999999,0)" xlink:href="#aN"/><use transform="matrix(0.05,0,0,0.05,22.9,0)" xlink:href="#bc"/><use transform="matrix(0.05,0,0,0.05,35.85,0)" xlink:href="#aL"/><use transform="matrix(0.05,0,0,0.05,45.85,0)" xlink:href="#aM"/><use transform="matrix(0.05,0,0,0.05,60.800000000000004,0)" xlink:href="#aN"/><use transform="matrix(0.05,0,0,0.05,70.80000000000001,0)" xlink:href="#be"/><use transform="matrix(0.05,0,0,0.05,76.75000000000001,0)" xlink:href="#aO"/></g><path fill="#333" d="M30 0v-248h33v221h125V0H30" id="cm"/><path fill="#333" d="M18-100v-36l175-74v27L42-118l151 64v27" id="cn"/><path fill="#333" d="M18-27v-27l151-64-151-65v-27l175 74v36" id="co"/><g id="N"><use transform="matrix(0.05,0,0,0.05,0,0)" xlink:href="#cm"/><use transform="matrix(0.05,0,0,0.05,10,0)" xlink:href="#aS"/><use transform="matrix(0.05,0,0,0.05,13.949999999999998,0)" xlink:href="#bX"/><use transform="matrix(0.05,0,0,0.05,22.95,0)" xlink:href="#aQ"/><use transform="matrix(0.05,0,0,0.05,27.950000000000003,0)" xlink:href="#cn"/><use transform="matrix(0.05,0,0,0.05,38.45,0)" xlink:href="#ci"/><use transform="matrix(0.05,0,0,0.05,50.45,0)" xlink:href="#aN"/><use transform="matrix(0.05,0,0,0.05,60.45,0)" xlink:href="#cj"/><use transform="matrix(0.05,0,0,0.05,69.45,0)" xlink:href="#aN"/><use transform="matrix(0.05,0,0,0.05,79.45,0)" xlink:href="#aR"/><use transform="matrix(0.05,0,0,0.05,85.4,0)" xlink:href="#aL"/><use transform="matrix(0.05,0,0,0.05,95.4,0)" xlink:href="#aT"/><use transform="matrix(0.05,0,0,0.05,105.4,0)" xlink:href="#aN"/><use transform="matrix(0.05,0,0,0.05,115.4,0)" xlink:href="#co"/></g><path fill="#333" d="M212-179c-10-28-35-45-73-45-59 0-87 40-87 99 0 60 29 101 89 101 43 0 62-24 78-52l27 14C228-24 195 4 139 4 59 4 22-46 18-125c-6-104 99-153 187-111 19 9 31 26 39 46" id="cp"/><g id="O"><use transform="matrix(0.05,0,0,0.05,0,0)" xlink:href="#ba"/><use transform="matrix(0.05,0,0,0.05,3.95,0)" xlink:href="#aX"/><use transform="matrix(0.05,0,0,0.05,13.949999999999998,0)" xlink:href="#aL"/><use transform="matrix(0.05,0,0,0.05,23.95,0)" xlink:href="#aW"/><use transform="matrix(0.05,0,0,0.05,33.95,0)" xlink:href="#cp"/><use transform="matrix(0.05,0,0,0.05,46.900000000000006,0)" xlink:href="#aX"/><use transform="matrix(0.05,0,0,0.05,56.900000000000006,0)" xlink:href="#aK"/><use transform="matrix(0.05,0,0,0.05,66.9,0)" xlink:href="#aW"/><use transform="matrix(0.05,0,0,0.05,76.9,0)" xlink:href="#aS"/><use transform="matrix(0.05,0,0,0.05,80.85000000000001,0)" xlink:href="#aM"/><use transform="matrix(0.05,0,0,0.05,95.80000000000001,0)" xlink:href="#aN"/><use transform="matrix(0.05,0,0,0.05,105.80000000000001,0)" xlink:href="#aK"/><use transform="matrix(0.05,0,0,0.05,115.80000000000001,0)" xlink:href="#aQ"/><use transform="matrix(0.05,0,0,0.05,120.80000000000001,0)" xlink:href="#ck"/><use transform="matrix(0.05,0,0,0.05,131.75,0)" xlink:href="#aS"/><use transform="matrix(0.05,0,0,0.05,135.7,0)" xlink:href="#ba"/><use transform="matrix(0.05,0,0,0.05,139.64999999999998,0)" xlink:href="#aN"/><use transform="matrix(0.05,0,0,0.05,149.64999999999998,0)" xlink:href="#bd"/><use transform="matrix(0.05,0,0,0.05,155.59999999999997,0)" xlink:href="#aP"/><use transform="matrix(0.05,0,0,0.05,167.59999999999997,0)" xlink:href="#aQ"/><use transform="matrix(0.05,0,0,0.05,172.59999999999997,0)" xlink:href="#aR"/><use transform="matrix(0.05,0,0,0.05,178.54999999999995,0)" xlink:href="#aS"/><use transform="matrix(0.05,0,0,0.05,182.49999999999994,0)" xlink:href="#aK"/><use transform="matrix(0.05,0,0,0.05,192.49999999999994,0)" xlink:href="#aT"/></g><g id="P"><use transform="matrix(0.05,0,0,0.05,0,0)" xlink:href="#cm"/><use transform="matrix(0.05,0,0,0.05,10,0)" xlink:href="#aS"/><use transform="matrix(0.05,0,0,0.05,13.949999999999998,0)" xlink:href="#bX"/><use transform="matrix(0.05,0,0,0.05,22.95,0)" xlink:href="#aQ"/><use transform="matrix(0.05,0,0,0.05,27.950000000000003,0)" xlink:href="#cn"/><use transform="matrix(0.05,0,0,0.05,38.45,0)" xlink:href="#cp"/><use transform="matrix(0.05,0,0,0.05,51.400000000000006,0)" xlink:href="#aX"/><use transform="matrix(0.05,0,0,0.05,61.400000000000006,0)" xlink:href="#aK"/><use transform="matrix(0.05,0,0,0.05,71.4,0)" xlink:href="#aW"/><use transform="matrix(0.05,0,0,0.05,81.4,0)" xlink:href="#aS"/><use transform="matrix(0.05,0,0,0.05,85.35000000000001,0)" xlink:href="#aM"/><use transform="matrix(0.05,0,0,0.05,100.30000000000001,0)" xlink:href="#aN"/><use transform="matrix(0.05,0,0,0.05,110.30000000000001,0)" xlink:href="#aK"/><use transform="matrix(0.05,0,0,0.05,120.30000000000001,0)" xlink:href="#aQ"/><use transform="matrix(0.05,0,0,0.05,125.30000000000001,0)" xlink:href="#co"/></g><path fill="#333" d="M238-95c0 69-44 99-111 99C63 4 22-25 22-93v-155h51v151c-1 38 19 59 55 60 90 1 49-130 58-211h52v153" id="cq"/><path fill="#333" d="M121-226c-27-7-43 5-38 36h38v33H83V0H34v-157H6v-33h28c-9-59 32-81 87-68v32" id="cr"/><g id="Q"><use transform="matrix(0.05,0,0,0.05,0,0)" xlink:href="#cq"/><use transform="matrix(0.05,0,0,0.05,12.950000000000001,0)" xlink:href="#aI"/><use transform="matrix(0.05,0,0,0.05,22.950000000000003,0)" xlink:href="#aB"/><use transform="matrix(0.05,0,0,0.05,32.95,0)" xlink:href="#aD"/><use transform="matrix(0.05,0,0,0.05,39.95,0)" xlink:href="#bR"/><use transform="matrix(0.05,0,0,0.05,44.95,0)" xlink:href="#bM"/><use transform="matrix(0.05,0,0,0.05,55.900000000000006,0)" xlink:href="#bQ"/><use transform="matrix(0.05,0,0,0.05,61.85,0)" xlink:href="#aB"/><use transform="matrix(0.05,0,0,0.05,71.85000000000001,0)" xlink:href="#aD"/><use transform="matrix(0.05,0,0,0.05,78.85000000000001,0)" xlink:href="#cr"/><use transform="matrix(0.05,0,0,0.05,84.80000000000001,0)" xlink:href="#aE"/><use transform="matrix(0.05,0,0,0.05,94.80000000000001,0)" xlink:href="#bV"/><use transform="matrix(0.05,0,0,0.05,104.80000000000001,0)" xlink:href="#aB"/></g><g id="R"><use transform="matrix(0.05,0,0,0.05,0,0)" xlink:href="#aZ"/><use transform="matrix(0.05,0,0,0.05,10,0)" xlink:href="#aN"/><use transform="matrix(0.05,0,0,0.05,20,0)" xlink:href="#cj"/><use transform="matrix(0.05,0,0,0.05,29,0)" xlink:href="#aN"/><use transform="matrix(0.05,0,0,0.05,39,0)" xlink:href="#aR"/><use transform="matrix(0.05,0,0,0.05,44.95,0)" xlink:href="#aL"/><use transform="matrix(0.05,0,0,0.05,54.95,0)" xlink:href="#aT"/><use transform="matrix(0.05,0,0,0.05,64.95,0)" xlink:href="#aN"/><use transform="matrix(0.05,0,0,0.05,74.95,0)" xlink:href="#bX"/><use transform="matrix(0.05,0,0,0.05,83.95,0)" xlink:href="#aO"/></g><g id="S"><use transform="matrix(0.05,0,0,0.05,0,0)" xlink:href="#bX"/><use transform="matrix(0.05,0,0,0.05,9,0)" xlink:href="#aY"/><use transform="matrix(0.05,0,0,0.05,19,0)" xlink:href="#aT"/><use transform="matrix(0.05,0,0,0.05,29,0)" xlink:href="#aL"/><use transform="matrix(0.05,0,0,0.05,39,0)" xlink:href="#aR"/><use transform="matrix(0.05,0,0,0.05,44.95,0)" xlink:href="#aO"/></g><g id="T"><use transform="matrix(0.05,0,0,0.05,0,0)" xlink:href="#cm"/><use transform="matrix(0.05,0,0,0.05,10,0)" xlink:href="#aS"/><use transform="matrix(0.05,0,0,0.05,13.949999999999998,0)" xlink:href="#bX"/><use transform="matrix(0.05,0,0,0.05,22.95,0)" xlink:href="#aQ"/><use transform="matrix(0.05,0,0,0.05,27.950000000000003,0)" xlink:href="#cn"/><use transform="matrix(0.05,0,0,0.05,38.45,0)" xlink:href="#cp"/><use transform="matrix(0.05,0,0,0.05,51.400000000000006,0)" xlink:href="#aX"/><use transform="matrix(0.05,0,0,0.05,61.400000000000006,0)" xlink:href="#aK"/><use transform="matrix(0.05,0,0,0.05,71.4,0)" xlink:href="#aW"/><use transform="matrix(0.05,0,0,0.05,81.4,0)" xlink:href="#aS"/><use transform="matrix(0.05,0,0,0.05,85.35000000000001,0)" xlink:href="#aM"/><use transform="matrix(0.05,0,0,0.05,100.30000000000001,0)" xlink:href="#aN"/><use transform="matrix(0.05,0,0,0.05,110.30000000000001,0)" xlink:href="#aK"/><use transform="matrix(0.05,0,0,0.05,120.30000000000001,0)" xlink:href="#aQ"/><use transform="matrix(0.05,0,0,0.05,125.30000000000001,0)" xlink:href="#co"/></g><path fill="#333" d="M143 0L79-87 56-68V0H24v-261h32v163l83-92h37l-77 82L181 0h-38" id="cs"/><g id="U"><use transform="matrix(0.05,0,0,0.05,0,0)" xlink:href="#aM"/><use transform="matrix(0.05,0,0,0.05,14.950000000000001,0)" xlink:href="#aS"/><use transform="matrix(0.05,0,0,0.05,18.900000000000002,0)" xlink:href="#ba"/><use transform="matrix(0.05,0,0,0.05,22.85,0)" xlink:href="#cs"/><use transform="matrix(0.05,0,0,0.05,31.85,0)" xlink:href="#aO"/></g><g id="V"><use transform="matrix(0.05,0,0,0.05,0,0)" xlink:href="#bX"/><use transform="matrix(0.05,0,0,0.05,9,0)" xlink:href="#aV"/><use transform="matrix(0.05,0,0,0.05,18,0)" xlink:href="#aL"/><use transform="matrix(0.05,0,0,0.05,28,0)" xlink:href="#aK"/><use transform="matrix(0.05,0,0,0.05,38,0)" xlink:href="#aK"/><use transform="matrix(0.05,0,0,0.05,48,0)" xlink:href="#aN"/><use transform="matrix(0.05,0,0,0.05,58,0)" xlink:href="#aR"/><use transform="matrix(0.05,0,0,0.05,63.95,0)" xlink:href="#aO"/></g><g id="W"><use transform="matrix(0.05,0,0,0.05,0,0)" xlink:href="#aP"/><use transform="matrix(0.05,0,0,0.05,12,0)" xlink:href="#aV"/><use transform="matrix(0.05,0,0,0.05,21,0)" xlink:href="#aL"/><use transform="matrix(0.05,0,0,0.05,31,0)" xlink:href="#aK"/><use transform="matrix(0.05,0,0,0.05,41,0)" xlink:href="#aK"/><use transform="matrix(0.05,0,0,0.05,51,0)" xlink:href="#aN"/><use transform="matrix(0.05,0,0,0.05,61,0)" xlink:href="#aR"/></g><g id="X"><use transform="matrix(0.05,0,0,0.05,0,0)" xlink:href="#aQ"/><use transform="matrix(0.05,0,0,0.05,5,0)" xlink:href="#aX"/><use transform="matrix(0.05,0,0,0.05,15,0)" xlink:href="#aQ"/><use transform="matrix(0.05,0,0,0.05,20,0)" xlink:href="#aL"/><use transform="matrix(0.05,0,0,0.05,30,0)" xlink:href="#ba"/><use transform="matrix(0.05,0,0,0.05,33.95,0)" xlink:href="#aO"/></g><g id="Y"><use transform="matrix(0.05,0,0,0.05,0,0)" xlink:href="#cb"/><use transform="matrix(0.05,0,0,0.05,12.950000000000001,0)" xlink:href="#aX"/><use transform="matrix(0.05,0,0,0.05,22.950000000000003,0)" xlink:href="#aY"/><use transform="matrix(0.05,0,0,0.05,32.95,0)" xlink:href="#aZ"/><use transform="matrix(0.05,0,0,0.05,42.95,0)" xlink:href="#ba"/><use transform="matrix(0.05,0,0,0.05,46.900000000000006,0)" xlink:href="#aN"/></g><use transform="matrix(0.05,0,0,0.05,0,0)" xlink:href="#aJ" id="Z"/><g id="aa"><use transform="matrix(0.05,0,0,0.05,0,0)" xlink:href="#bX"/><use transform="matrix(0.05,0,0,0.05,9,0)" xlink:href="#aN"/><use transform="matrix(0.05,0,0,0.05,19,0)" xlink:href="#ba"/><use transform="matrix(0.05,0,0,0.05,22.95,0)" xlink:href="#aN"/><use transform="matrix(0.05,0,0,0.05,32.95,0)" xlink:href="#aV"/><use transform="matrix(0.05,0,0,0.05,41.95,0)" xlink:href="#aQ"/><use transform="matrix(0.05,0,0,0.05,46.95,0)" xlink:href="#aN"/><use transform="matrix(0.05,0,0,0.05,56.95,0)" xlink:href="#aW"/><use transform="matrix(0.05,0,0,0.05,66.95,0)" xlink:href="#ci"/><use transform="matrix(0.05,0,0,0.05,78.95,0)" xlink:href="#aN"/><use transform="matrix(0.05,0,0,0.05,88.95,0)" xlink:href="#cj"/><use transform="matrix(0.05,0,0,0.05,97.95,0)" xlink:href="#aN"/><use transform="matrix(0.05,0,0,0.05,107.95,0)" xlink:href="#aR"/><use transform="matrix(0.05,0,0,0.05,113.9,0)" xlink:href="#aL"/><use transform="matrix(0.05,0,0,0.05,123.9,0)" xlink:href="#aT"/><use transform="matrix(0.05,0,0,0.05,133.9,0)" xlink:href="#aN"/><use transform="matrix(0.05,0,0,0.05,143.9,0)" xlink:href="#aO"/></g><g id="ab"><use transform="matrix(0.05,0,0,0.05,0,0)" xlink:href="#ci"/><use transform="matrix(0.05,0,0,0.05,12,0)" xlink:href="#aN"/><use transform="matrix(0.05,0,0,0.05,22,0)" xlink:href="#cj"/><use transform="matrix(0.05,0,0,0.05,31,0)" xlink:href="#aN"/><use transform="matrix(0.05,0,0,0.05,41,0)" xlink:href="#aR"/><use transform="matrix(0.05,0,0,0.05,46.95,0)" xlink:href="#aL"/><use transform="matrix(0.05,0,0,0.05,56.95,0)" xlink:href="#aT"/><use transform="matrix(0.05,0,0,0.05,66.95,0)" xlink:href="#aN"/></g><g id="ac"><use transform="matrix(0.05,0,0,0.05,0,0)" xlink:href="#bX"/><use transform="matrix(0.05,0,0,0.05,9,0)" xlink:href="#aN"/><use transform="matrix(0.05,0,0,0.05,19,0)" xlink:href="#ba"/><use transform="matrix(0.05,0,0,0.05,22.95,0)" xlink:href="#aN"/><use transform="matrix(0.05,0,0,0.05,32.95,0)" xlink:href="#aV"/><use transform="matrix(0.05,0,0,0.05,41.95,0)" xlink:href="#aQ"/><use transform="matrix(0.05,0,0,0.05,46.95,0)" xlink:href="#aN"/><use transform="matrix(0.05,0,0,0.05,56.95,0)" xlink:href="#aW"/><use transform="matrix(0.05,0,0,0.05,66.95,0)" xlink:href="#aP"/><use transform="matrix(0.05,0,0,0.05,78.95,0)" xlink:href="#aY"/><use transform="matrix(0.05,0,0,0.05,88.95,0)" xlink:href="#aT"/><use transform="matrix(0.05,0,0,0.05,98.95,0)" xlink:href="#aL"/><use transform="matrix(0.05,0,0,0.05,108.95,0)" xlink:href="#aR"/><use transform="matrix(0.05,0,0,0.05,114.9,0)" xlink:href="#aO"/></g><g id="ad"><use transform="matrix(0.05,0,0,0.05,0,0)" xlink:href="#cm"/><use transform="matrix(0.05,0,0,0.05,10,0)" xlink:href="#aS"/><use transform="matrix(0.05,0,0,0.05,13.949999999999998,0)" xlink:href="#bX"/><use transform="matrix(0.05,0,0,0.05,22.95,0)" xlink:href="#aQ"/><use transform="matrix(0.05,0,0,0.05,27.950000000000003,0)" xlink:href="#cn"/><use transform="matrix(0.05,0,0,0.05,38.45,0)" xlink:href="#cp"/><use transform="matrix(0.05,0,0,0.05,51.400000000000006,0)" xlink:href="#aX"/><use transform="matrix(0.05,0,0,0.05,61.400000000000006,0)" xlink:href="#aK"/><use transform="matrix(0.05,0,0,0.05,71.4,0)" xlink:href="#aW"/><use transform="matrix(0.05,0,0,0.05,81.4,0)" xlink:href="#aS"/><use transform="matrix(0.05,0,0,0.05,85.35000000000001,0)" xlink:href="#aM"/><use transform="matrix(0.05,0,0,0.05,100.30000000000001,0)" xlink:href="#aN"/><use transform="matrix(0.05,0,0,0.05,110.30000000000001,0)" xlink:href="#aK"/><use transform="matrix(0.05,0,0,0.05,120.30000000000001,0)" xlink:href="#aQ"/><use transform="matrix(0.05,0,0,0.05,125.30000000000001,0)" xlink:href="#aP"/><use transform="matrix(0.05,0,0,0.05,137.3,0)" xlink:href="#aN"/><use transform="matrix(0.05,0,0,0.05,147.3,0)" xlink:href="#ba"/><use transform="matrix(0.05,0,0,0.05,151.25,0)" xlink:href="#aN"/><use transform="matrix(0.05,0,0,0.05,161.25,0)" xlink:href="#aV"/><use transform="matrix(0.05,0,0,0.05,170.25,0)" xlink:href="#aQ"/><use transform="matrix(0.05,0,0,0.05,175.25,0)" xlink:href="#aS"/><use transform="matrix(0.05,0,0,0.05,179.2,0)" xlink:href="#aX"/><use transform="matrix(0.05,0,0,0.05,189.2,0)" xlink:href="#aK"/><use transform="matrix(0.05,0,0,0.05,199.2,0)" xlink:href="#co"/></g><path fill="#333" d="M240 0l2-218c-23 76-54 145-80 218h-23L58-218 59 0H30v-248h44l77 211c21-75 51-140 76-211h43V0h-30" id="ct"/><g id="ae"><use transform="matrix(0.05,0,0,0.05,0,0)" xlink:href="#bX"/><use transform="matrix(0.05,0,0,0.05,9,0)" xlink:href="#aN"/><use transform="matrix(0.05,0,0,0.05,19,0)" xlink:href="#ba"/><use transform="matrix(0.05,0,0,0.05,22.95,0)" xlink:href="#aN"/><use transform="matrix(0.05,0,0,0.05,32.95,0)" xlink:href="#aV"/><use transform="matrix(0.05,0,0,0.05,41.95,0)" xlink:href="#aQ"/><use transform="matrix(0.05,0,0,0.05,46.95,0)" xlink:href="#aN"/><use transform="matrix(0.05,0,0,0.05,56.95,0)" xlink:href="#aW"/><use transform="matrix(0.05,0,0,0.05,66.95,0)" xlink:href="#ct"/><use transform="matrix(0.05,0,0,0.05,81.9,0)" xlink:href="#aS"/><use transform="matrix(0.05,0,0,0.05,85.85000000000001,0)" xlink:href="#ba"/><use transform="matrix(0.05,0,0,0.05,89.80000000000001,0)" xlink:href="#cs"/><use transform="matrix(0.05,0,0,0.05,98.80000000000001,0)" xlink:href="#aO"/></g><g id="af"><use transform="matrix(0.05,0,0,0.05,0,0)" xlink:href="#cm"/><use transform="matrix(0.05,0,0,0.05,10,0)" xlink:href="#aS"/><use transform="matrix(0.05,0,0,0.05,13.949999999999998,0)" xlink:href="#bX"/><use transform="matrix(0.05,0,0,0.05,22.95,0)" xlink:href="#aQ"/><use transform="matrix(0.05,0,0,0.05,27.950000000000003,0)" xlink:href="#cn"/><use transform="matrix(0.05,0,0,0.05,38.45,0)" xlink:href="#cp"/><use transform="matrix(0.05,0,0,0.05,51.400000000000006,0)" xlink:href="#aX"/><use transform="matrix(0.05,0,0,0.05,61.400000000000006,0)" xlink:href="#aK"/><use transform="matrix(0.05,0,0,0.05,71.4,0)" xlink:href="#aW"/><use transform="matrix(0.05,0,0,0.05,81.4,0)" xlink:href="#aS"/><use transform="matrix(0.05,0,0,0.05,85.35000000000001,0)" xlink:href="#aM"/><use transform="matrix(0.05,0,0,0.05,100.30000000000001,0)" xlink:href="#aN"/><use transform="matrix(0.05,0,0,0.05,110.30000000000001,0)" xlink:href="#aK"/><use transform="matrix(0.05,0,0,0.05,120.30000000000001,0)" xlink:href="#aQ"/><use transform="matrix(0.05,0,0,0.05,125.30000000000001,0)" xlink:href="#aP"/><use transform="matrix(0.05,0,0,0.05,137.3,0)" xlink:href="#aN"/><use transform="matrix(0.05,0,0,0.05,147.3,0)" xlink:href="#ba"/><use transform="matrix(0.05,0,0,0.05,151.25,0)" xlink:href="#aN"/><use transform="matrix(0.05,0,0,0.05,161.25,0)" xlink:href="#aV"/><use transform="matrix(0.05,0,0,0.05,170.25,0)" xlink:href="#aQ"/><use transform="matrix(0.05,0,0,0.05,175.25,0)" xlink:href="#aS"/><use transform="matrix(0.05,0,0,0.05,179.2,0)" xlink:href="#aX"/><use transform="matrix(0.05,0,0,0.05,189.2,0)" xlink:href="#aK"/><use transform="matrix(0.05,0,0,0.05,199.2,0)" xlink:href="#co"/></g><g id="ag"><use transform="matrix(0.05,0,0,0.05,0,0)" xlink:href="#bX"/><use transform="matrix(0.05,0,0,0.05,9,0)" xlink:href="#aQ"/><use transform="matrix(0.05,0,0,0.05,14,0)" xlink:href="#aL"/><use transform="matrix(0.05,0,0,0.05,24,0)" xlink:href="#aR"/><use transform="matrix(0.05,0,0,0.05,29.950000000000003,0)" xlink:href="#aQ"/><use transform="matrix(0.05,0,0,0.05,34.95,0)" xlink:href="#bd"/><use transform="matrix(0.05,0,0,0.05,40.900000000000006,0)" xlink:href="#be"/><use transform="matrix(0.05,0,0,0.05,46.85000000000001,0)" xlink:href="#aO"/></g><g id="ah"><use transform="matrix(0.05,0,0,0.05,0,0)" xlink:href="#cj"/><use transform="matrix(0.05,0,0,0.05,9,0)" xlink:href="#aX"/><use transform="matrix(0.05,0,0,0.05,19,0)" xlink:href="#aS"/><use transform="matrix(0.05,0,0,0.05,22.95,0)" xlink:href="#aW"/></g><path fill="#333" d="M106-169C34-169 62-67 57 0H25v-261h32l-1 103c12-21 28-36 61-36 89 0 53 116 60 194h-32v-121c2-32-8-49-39-48" id="cu"/><g id="ai"><use transform="matrix(0.05,0,0,0.05,0,0)" xlink:href="#aT"/><use transform="matrix(0.05,0,0,0.05,10,0)" xlink:href="#aN"/><use transform="matrix(0.05,0,0,0.05,20,0)" xlink:href="#aQ"/><use transform="matrix(0.05,0,0,0.05,25,0)" xlink:href="#bZ"/><use transform="matrix(0.05,0,0,0.05,37.95,0)" xlink:href="#bX"/><use transform="matrix(0.05,0,0,0.05,46.95,0)" xlink:href="#aN"/><use transform="matrix(0.05,0,0,0.05,56.95,0)" xlink:href="#aR"/><use transform="matrix(0.05,0,0,0.05,62.900000000000006,0)" xlink:href="#cp"/><use transform="matrix(0.05,0,0,0.05,75.85000000000001,0)" xlink:href="#cu"/><use transform="matrix(0.05,0,0,0.05,85.85000000000001,0)" xlink:href="#aX"/><use transform="matrix(0.05,0,0,0.05,95.85000000000001,0)" xlink:href="#aS"/><use transform="matrix(0.05,0,0,0.05,99.80000000000001,0)" xlink:href="#aV"/><use transform="matrix(0.05,0,0,0.05,108.80000000000001,0)" xlink:href="#aN"/><use transform="matrix(0.05,0,0,0.05,118.80000000000001,0)" xlink:href="#bd"/><use transform="matrix(0.05,0,0,0.05,124.75,0)" xlink:href="#aP"/><use transform="matrix(0.05,0,0,0.05,136.75,0)" xlink:href="#aQ"/><use transform="matrix(0.05,0,0,0.05,141.75,0)" xlink:href="#aR"/><use transform="matrix(0.05,0,0,0.05,147.7,0)" xlink:href="#aS"/><use transform="matrix(0.05,0,0,0.05,151.64999999999998,0)" xlink:href="#aK"/><use transform="matrix(0.05,0,0,0.05,161.64999999999998,0)" xlink:href="#aT"/></g><g id="aj"><use transform="matrix(0.05,0,0,0.05,0,0)" xlink:href="#aM"/><use transform="matrix(0.05,0,0,0.05,14.950000000000001,0)" xlink:href="#aN"/><use transform="matrix(0.05,0,0,0.05,24.950000000000003,0)" xlink:href="#bX"/><use transform="matrix(0.05,0,0,0.05,33.95,0)" xlink:href="#bX"/><use transform="matrix(0.05,0,0,0.05,42.95,0)" xlink:href="#aL"/><use transform="matrix(0.05,0,0,0.05,52.95,0)" xlink:href="#aT"/><use transform="matrix(0.05,0,0,0.05,62.95,0)" xlink:href="#aN"/><use transform="matrix(0.05,0,0,0.05,72.95,0)" xlink:href="#be"/><use transform="matrix(0.05,0,0,0.05,78.9,0)" xlink:href="#aO"/></g><g id="ak"><use transform="matrix(0.05,0,0,0.05,0,0)" xlink:href="#cu"/><use transform="matrix(0.05,0,0,0.05,10,0)" xlink:href="#aL"/><use transform="matrix(0.05,0,0,0.05,20,0)" xlink:href="#aK"/><use transform="matrix(0.05,0,0,0.05,30,0)" xlink:href="#aW"/><use transform="matrix(0.05,0,0,0.05,40,0)" xlink:href="#ba"/><use transform="matrix(0.05,0,0,0.05,43.95,0)" xlink:href="#aN"/><use transform="matrix(0.05,0,0,0.05,53.95,0)" xlink:href="#cp"/><use transform="matrix(0.05,0,0,0.05,66.9,0)" xlink:href="#aX"/><use transform="matrix(0.05,0,0,0.05,76.9,0)" xlink:href="#aK"/><use transform="matrix(0.05,0,0,0.05,86.9,0)" xlink:href="#aW"/><use transform="matrix(0.05,0,0,0.05,96.9,0)" xlink:href="#aS"/><use transform="matrix(0.05,0,0,0.05,100.85000000000001,0)" xlink:href="#aM"/><use transform="matrix(0.05,0,0,0.05,115.80000000000001,0)" xlink:href="#aN"/><use transform="matrix(0.05,0,0,0.05,125.80000000000001,0)" xlink:href="#aK"/><use transform="matrix(0.05,0,0,0.05,135.8,0)" xlink:href="#aQ"/><use transform="matrix(0.05,0,0,0.05,140.8,0)" xlink:href="#ce"/><use transform="matrix(0.05,0,0,0.05,154.8,0)" xlink:href="#aU"/><use transform="matrix(0.05,0,0,0.05,164.8,0)" xlink:href="#aQ"/><use transform="matrix(0.05,0,0,0.05,169.8,0)" xlink:href="#aS"/><use transform="matrix(0.05,0,0,0.05,173.75,0)" xlink:href="#aX"/><use transform="matrix(0.05,0,0,0.05,183.75,0)" xlink:href="#aK"/><use transform="matrix(0.05,0,0,0.05,193.75,0)" xlink:href="#bX"/><use transform="matrix(0.05,0,0,0.05,202.75,0)" xlink:href="#bd"/><use transform="matrix(0.05,0,0,0.05,208.69999999999996,0)" xlink:href="#cm"/><use transform="matrix(0.05,0,0,0.05,218.69999999999996,0)" xlink:href="#aS"/><use transform="matrix(0.05,0,0,0.05,222.64999999999998,0)" xlink:href="#bX"/><use transform="matrix(0.05,0,0,0.05,231.64999999999998,0)" xlink:href="#aQ"/><use transform="matrix(0.05,0,0,0.05,236.64999999999998,0)" xlink:href="#cn"/><use transform="matrix(0.05,0,0,0.05,247.14999999999998,0)" xlink:href="#cp"/><use transform="matrix(0.05,0,0,0.05,260.09999999999997,0)" xlink:href="#aX"/><use transform="matrix(0.05,0,0,0.05,270.09999999999997,0)" xlink:href="#aK"/><use transform="matrix(0.05,0,0,0.05,280.09999999999997,0)" xlink:href="#aW"/><use transform="matrix(0.05,0,0,0.05,290.09999999999997,0)" xlink:href="#aS"/><use transform="matrix(0.05,0,0,0.05,294.04999999999995,0)" xlink:href="#aM"/><use transform="matrix(0.05,0,0,0.05,308.99999999999994,0)" xlink:href="#aN"/><use transform="matrix(0.05,0,0,0.05,318.99999999999994,0)" xlink:href="#aK"/><use transform="matrix(0.05,0,0,0.05,328.99999999999994,0)" xlink:href="#aQ"/><use transform="matrix(0.05,0,0,0.05,333.99999999999994,0)" xlink:href="#co"/></g><path fill="#333" d="M68-38c1 34 0 65-14 84H32c9-13 17-26 17-46H33v-38h35" id="cv"/><g id="al"><use transform="matrix(0.05,0,0,0.05,0,0)" xlink:href="#aV"/><use transform="matrix(0.05,0,0,0.05,9,0)" xlink:href="#aX"/><use transform="matrix(0.05,0,0,0.05,19,0)" xlink:href="#aK"/><use transform="matrix(0.05,0,0,0.05,29,0)" xlink:href="#aW"/><use transform="matrix(0.05,0,0,0.05,39,0)" xlink:href="#aS"/><use transform="matrix(0.05,0,0,0.05,42.95,0)" xlink:href="#aM"/><use transform="matrix(0.05,0,0,0.05,57.900000000000006,0)" xlink:href="#aN"/><use transform="matrix(0.05,0,0,0.05,67.9,0)" xlink:href="#aK"/><use transform="matrix(0.05,0,0,0.05,77.9,0)" xlink:href="#aQ"/><use transform="matrix(0.05,0,0,0.05,82.9,0)" xlink:href="#bX"/><use transform="matrix(0.05,0,0,0.05,91.9,0)" xlink:href="#cv"/></g><g id="am"><use transform="matrix(0.05,0,0,0.05,0,0)" xlink:href="#aP"/><use transform="matrix(0.05,0,0,0.05,12,0)" xlink:href="#aQ"/><use transform="matrix(0.05,0,0,0.05,17,0)" xlink:href="#aR"/><use transform="matrix(0.05,0,0,0.05,22.95,0)" xlink:href="#aS"/><use transform="matrix(0.05,0,0,0.05,26.899999999999995,0)" xlink:href="#aK"/><use transform="matrix(0.05,0,0,0.05,36.9,0)" xlink:href="#aT"/></g><g id="an"><use transform="matrix(0.05,0,0,0.05,0,0)" xlink:href="#aV"/><use transform="matrix(0.05,0,0,0.05,9,0)" xlink:href="#aX"/><use transform="matrix(0.05,0,0,0.05,19,0)" xlink:href="#aK"/><use transform="matrix(0.05,0,0,0.05,29,0)" xlink:href="#aW"/><use transform="matrix(0.05,0,0,0.05,39,0)" xlink:href="#aS"/><use transform="matrix(0.05,0,0,0.05,42.95,0)" xlink:href="#aM"/><use transform="matrix(0.05,0,0,0.05,57.900000000000006,0)" xlink:href="#aN"/><use transform="matrix(0.05,0,0,0.05,67.9,0)" xlink:href="#aK"/><use transform="matrix(0.05,0,0,0.05,77.9,0)" xlink:href="#aQ"/><use transform="matrix(0.05,0,0,0.05,82.9,0)" xlink:href="#cc"/><use transform="matrix(0.05,0,0,0.05,92.85000000000001,0)" xlink:href="#cd"/><use transform="matrix(0.05,0,0,0.05,101.85000000000001,0)" xlink:href="#aU"/><use transform="matrix(0.05,0,0,0.05,111.85000000000001,0)" xlink:href="#aN"/><use transform="matrix(0.05,0,0,0.05,121.85000000000001,0)" xlink:href="#cv"/></g><g id="ao"><use transform="matrix(0.05,0,0,0.05,0,0)" xlink:href="#cm"/><use transform="matrix(0.05,0,0,0.05,10,0)" xlink:href="#aS"/><use transform="matrix(0.05,0,0,0.05,13.949999999999998,0)" xlink:href="#bX"/><use transform="matrix(0.05,0,0,0.05,22.95,0)" xlink:href="#aQ"/><use transform="matrix(0.05,0,0,0.05,27.950000000000003,0)" xlink:href="#cn"/><use transform="matrix(0.05,0,0,0.05,38.45,0)" xlink:href="#cp"/><use transform="matrix(0.05,0,0,0.05,51.400000000000006,0)" xlink:href="#aX"/><use transform="matrix(0.05,0,0,0.05,61.400000000000006,0)" xlink:href="#aK"/><use transform="matrix(0.05,0,0,0.05,71.4,0)" xlink:href="#aW"/><use transform="matrix(0.05,0,0,0.05,81.4,0)" xlink:href="#aS"/><use transform="matrix(0.05,0,0,0.05,85.35000000000001,0)" xlink:href="#aM"/><use transform="matrix(0.05,0,0,0.05,100.30000000000001,0)" xlink:href="#aN"/><use transform="matrix(0.05,0,0,0.05,110.30000000000001,0)" xlink:href="#aK"/><use transform="matrix(0.05,0,0,0.05,120.30000000000001,0)" xlink:href="#aQ"/><use transform="matrix(0.05,0,0,0.05,125.30000000000001,0)" xlink:href="#aP"/><use transform="matrix(0.05,0,0,0.05,137.3,0)" xlink:href="#aN"/><use transform="matrix(0.05,0,0,0.05,147.3,0)" xlink:href="#ba"/><use transform="matrix(0.05,0,0,0.05,151.25,0)" xlink:href="#aN"/><use transform="matrix(0.05,0,0,0.05,161.25,0)" xlink:href="#aV"/><use transform="matrix(0.05,0,0,0.05,170.25,0)" xlink:href="#aQ"/><use transform="matrix(0.05,0,0,0.05,175.25,0)" xlink:href="#aS"/><use transform="matrix(0.05,0,0,0.05,179.2,0)" xlink:href="#aX"/><use transform="matrix(0.05,0,0,0.05,189.2,0)" xlink:href="#aK"/><use transform="matrix(0.05,0,0,0.05,199.2,0)" xlink:href="#co"/></g><g id="ap"><use transform="matrix(0.05,0,0,0.05,0,0)" xlink:href="#bX"/><use transform="matrix(0.05,0,0,0.05,9,0)" xlink:href="#aN"/><use transform="matrix(0.05,0,0,0.05,19,0)" xlink:href="#ba"/><use transform="matrix(0.05,0,0,0.05,22.95,0)" xlink:href="#aN"/><use transform="matrix(0.05,0,0,0.05,32.95,0)" xlink:href="#aV"/><use transform="matrix(0.05,0,0,0.05,41.95,0)" xlink:href="#aQ"/><use transform="matrix(0.05,0,0,0.05,46.95,0)" xlink:href="#aS"/><use transform="matrix(0.05,0,0,0.05,50.900000000000006,0)" xlink:href="#aX"/><use transform="matrix(0.05,0,0,0.05,60.900000000000006,0)" xlink:href="#aK"/><use transform="matrix(0.05,0,0,0.05,70.9,0)" xlink:href="#bX"/><use transform="matrix(0.05,0,0,0.05,79.9,0)" xlink:href="#be"/><use transform="matrix(0.05,0,0,0.05,85.85000000000001,0)" xlink:href="#aO"/></g><path fill="#333" d="M169-182c-1-43-94-46-97-3 18 66 151 10 154 114 3 95-165 93-204 36-6-8-10-19-12-30l50-8c3 46 112 56 116 5-17-69-150-10-154-114-4-87 153-88 188-35 5 8 8 18 10 28" id="cw"/><g id="ar"><use transform="matrix(0.05,0,0,0.05,0,0)" xlink:href="#aG"/><use transform="matrix(0.05,0,0,0.05,12.950000000000001,0)" xlink:href="#bL"/><use transform="matrix(0.05,0,0,0.05,23.900000000000002,0)" xlink:href="#bM"/><use transform="matrix(0.05,0,0,0.05,34.85,0)" xlink:href="#bN"/><use transform="matrix(0.05,0,0,0.05,45.800000000000004,0)" xlink:href="#bO"/><use transform="matrix(0.05,0,0,0.05,50.800000000000004,0)" xlink:href="#bP"/><use transform="matrix(0.05,0,0,0.05,66.80000000000001,0)" xlink:href="#aB"/><use transform="matrix(0.05,0,0,0.05,76.80000000000001,0)" xlink:href="#bM"/><use transform="matrix(0.05,0,0,0.05,87.75000000000001,0)" xlink:href="#bQ"/><use transform="matrix(0.05,0,0,0.05,93.70000000000002,0)" xlink:href="#cw"/><use transform="matrix(0.05,0,0,0.05,105.7,0)" xlink:href="#aB"/><use transform="matrix(0.05,0,0,0.05,115.7,0)" xlink:href="#aH"/><use transform="matrix(0.05,0,0,0.05,120.7,0)" xlink:href="#aB"/><use transform="matrix(0.05,0,0,0.05,130.70000000000002,0)" xlink:href="#bV"/><use transform="matrix(0.05,0,0,0.05,140.70000000000002,0)" xlink:href="#bQ"/><use transform="matrix(0.05,0,0,0.05,146.65,0)" xlink:href="#bO"/><use transform="matrix(0.05,0,0,0.05,151.65,0)" xlink:href="#bL"/><use transform="matrix(0.05,0,0,0.05,162.6,0)" xlink:href="#bM"/></g><g id="as"><use transform="matrix(0.05,0,0,0.05,0,0)" xlink:href="#aV"/><use transform="matrix(0.05,0,0,0.05,9,0)" xlink:href="#aX"/><use transform="matrix(0.05,0,0,0.05,19,0)" xlink:href="#aK"/><use transform="matrix(0.05,0,0,0.05,29,0)" xlink:href="#aW"/><use transform="matrix(0.05,0,0,0.05,39,0)" xlink:href="#aS"/><use transform="matrix(0.05,0,0,0.05,42.95,0)" xlink:href="#aM"/><use transform="matrix(0.05,0,0,0.05,57.900000000000006,0)" xlink:href="#aN"/><use transform="matrix(0.05,0,0,0.05,67.9,0)" xlink:href="#aK"/><use transform="matrix(0.05,0,0,0.05,77.9,0)" xlink:href="#aQ"/><use transform="matrix(0.05,0,0,0.05,82.9,0)" xlink:href="#aO"/></g><g id="at"><use transform="matrix(0.05,0,0,0.05,0,0)" xlink:href="#cp"/><use transform="matrix(0.05,0,0,0.05,12.950000000000001,0)" xlink:href="#aX"/><use transform="matrix(0.05,0,0,0.05,22.950000000000003,0)" xlink:href="#aK"/><use transform="matrix(0.05,0,0,0.05,32.95,0)" xlink:href="#aW"/><use transform="matrix(0.05,0,0,0.05,42.95,0)" xlink:href="#aS"/><use transform="matrix(0.05,0,0,0.05,46.900000000000006,0)" xlink:href="#aM"/><use transform="matrix(0.05,0,0,0.05,61.85,0)" xlink:href="#aN"/><use transform="matrix(0.05,0,0,0.05,71.85000000000001,0)" xlink:href="#aK"/><use transform="matrix(0.05,0,0,0.05,81.85000000000001,0)" xlink:href="#aQ"/></g><g id="au"><use transform="matrix(0.05,0,0,0.05,0,0)" xlink:href="#aY"/><use transform="matrix(0.05,0,0,0.05,10,0)" xlink:href="#aK"/><use transform="matrix(0.05,0,0,0.05,20,0)" xlink:href="#aS"/><use transform="matrix(0.05,0,0,0.05,23.95,0)" xlink:href="#aQ"/><use transform="matrix(0.05,0,0,0.05,28.950000000000003,0)" xlink:href="#bX"/><use transform="matrix(0.05,0,0,0.05,37.95,0)" xlink:href="#aO"/></g><g id="av"><use transform="matrix(0.05,0,0,0.05,0,0)" xlink:href="#aS"/><use transform="matrix(0.05,0,0,0.05,3.95,0)" xlink:href="#aK"/><use transform="matrix(0.05,0,0,0.05,13.949999999999998,0)" xlink:href="#aQ"/></g><g id="aw"><use transform="matrix(0.05,0,0,0.05,0,0)" xlink:href="#cp"/><use transform="matrix(0.05,0,0,0.05,12.950000000000001,0)" xlink:href="#aX"/><use transform="matrix(0.05,0,0,0.05,22.950000000000003,0)" xlink:href="#aK"/><use transform="matrix(0.05,0,0,0.05,32.95,0)" xlink:href="#aW"/><use transform="matrix(0.05,0,0,0.05,42.95,0)" xlink:href="#aS"/><use transform="matrix(0.05,0,0,0.05,46.900000000000006,0)" xlink:href="#aM"/><use transform="matrix(0.05,0,0,0.05,61.85,0)" xlink:href="#aN"/><use transform="matrix(0.05,0,0,0.05,71.85000000000001,0)" xlink:href="#aK"/><use transform="matrix(0.05,0,0,0.05,81.85000000000001,0)" xlink:href="#aQ"/><use transform="matrix(0.05,0,0,0.05,86.85000000000001,0)" xlink:href="#aP"/><use transform="matrix(0.05,0,0,0.05,98.85000000000001,0)" xlink:href="#aN"/><use transform="matrix(0.05,0,0,0.05,108.85000000000001,0)" xlink:href="#ba"/><use transform="matrix(0.05,0,0,0.05,112.80000000000001,0)" xlink:href="#aN"/><use transform="matrix(0.05,0,0,0.05,122.80000000000001,0)" xlink:href="#aV"/><use transform="matrix(0.05,0,0,0.05,131.8,0)" xlink:href="#aQ"/><use transform="matrix(0.05,0,0,0.05,136.8,0)" xlink:href="#aS"/><use transform="matrix(0.05,0,0,0.05,140.75,0)" xlink:href="#aX"/><use transform="matrix(0.05,0,0,0.05,150.75,0)" xlink:href="#aK"/><use transform="matrix(0.05,0,0,0.05,160.75,0)" xlink:href="#bd"/><use transform="matrix(0.05,0,0,0.05,166.7,0)" xlink:href="#cp"/><use transform="matrix(0.05,0,0,0.05,179.64999999999998,0)" xlink:href="#aX"/><use transform="matrix(0.05,0,0,0.05,189.64999999999998,0)" xlink:href="#aK"/><use transform="matrix(0.05,0,0,0.05,199.64999999999998,0)" xlink:href="#aW"/><use transform="matrix(0.05,0,0,0.05,209.64999999999998,0)" xlink:href="#aS"/><use transform="matrix(0.05,0,0,0.05,213.59999999999997,0)" xlink:href="#aM"/><use transform="matrix(0.05,0,0,0.05,228.54999999999995,0)" xlink:href="#aN"/><use transform="matrix(0.05,0,0,0.05,238.54999999999995,0)" xlink:href="#aK"/><use transform="matrix(0.05,0,0,0.05,248.54999999999995,0)" xlink:href="#aQ"/></g><g id="ax"><use transform="matrix(0.05,0,0,0.05,0,0)" xlink:href="#aV"/><use transform="matrix(0.05,0,0,0.05,9,0)" xlink:href="#aX"/><use transform="matrix(0.05,0,0,0.05,19,0)" xlink:href="#aK"/><use transform="matrix(0.05,0,0,0.05,29,0)" xlink:href="#aW"/><use transform="matrix(0.05,0,0,0.05,39,0)" xlink:href="#aS"/><use transform="matrix(0.05,0,0,0.05,42.95,0)" xlink:href="#aM"/><use transform="matrix(0.05,0,0,0.05,57.900000000000006,0)" xlink:href="#aN"/><use transform="matrix(0.05,0,0,0.05,67.9,0)" xlink:href="#aK"/><use transform="matrix(0.05,0,0,0.05,77.9,0)" xlink:href="#aQ"/><use transform="matrix(0.05,0,0,0.05,82.9,0)" xlink:href="#cv"/></g><g id="ay"><use transform="matrix(0.05,0,0,0.05,0,0)" xlink:href="#aS"/><use transform="matrix(0.05,0,0,0.05,3.95,0)" xlink:href="#aK"/><use transform="matrix(0.05,0,0,0.05,13.949999999999998,0)" xlink:href="#aQ"/></g><g id="az"><use transform="matrix(0.05,0,0,0.05,0,0)" xlink:href="#aY"/><use transform="matrix(0.05,0,0,0.05,10,0)" xlink:href="#aK"/><use transform="matrix(0.05,0,0,0.05,20,0)" xlink:href="#aS"/><use transform="matrix(0.05,0,0,0.05,23.95,0)" xlink:href="#aQ"/><use transform="matrix(0.05,0,0,0.05,28.950000000000003,0)" xlink:href="#bX"/><use transform="matrix(0.05,0,0,0.05,37.95,0)" xlink:href="#be"/></g></defs></g></svg>